<svg width="207" height="248" viewBox="0 0 207 248" fill="none" xmlns="http://www.w3.org/2000/svg">
<path d="M106.631 170.454C113.629 170.454 119.154 168.808 123.39 165.516C127.626 162.224 129.651 157.103 129.651 149.971C129.651 145.581 128.915 141.741 127.257 138.631C125.6 135.522 123.39 133.145 120.627 131.499C117.865 129.853 114.55 129.121 110.682 129.121C106.447 129.121 102.579 130.401 99.2643 132.962L98.1594 130.036H88.9512V181.794H101.29V170.272C102.948 170.272 104.789 170.454 106.631 170.454ZM101.29 139.729C102.579 138.997 103.684 138.449 104.973 138.083C106.263 137.717 107.736 137.534 109.209 137.534C114.55 137.534 117.128 141.558 117.128 149.422C117.128 153.446 116.207 156.555 114.366 158.567C112.524 160.578 109.578 161.493 105.71 161.493C104.237 161.493 102.763 161.31 101.106 160.944V139.729H101.29Z" fill="white"/>
<path d="M74.2179 129.67V169.54H65.0097L63.7206 166.248C59.1165 168.991 54.6966 170.454 50.2766 170.454C45.12 170.454 41.4368 168.991 39.411 166.248C37.3852 163.504 36.4644 159.481 36.4644 154.36V129.67H48.8033V152.714C48.8033 156.006 49.1717 158.201 49.9083 159.481C50.645 160.761 52.1183 161.31 54.3282 161.31C56.7224 161.31 59.1165 160.578 61.6948 158.932V129.67H74.2179Z" fill="white"/>
<path d="M166.852 140.643C164.458 140.643 162.248 140.826 160.222 141.009C158.196 141.375 155.987 141.923 153.592 142.655V169.54H141.253V129.67H150.462L152.303 134.425C154.697 132.413 157.091 131.133 159.486 130.218C161.88 129.304 164.274 128.938 166.852 128.938V140.643Z" fill="white"/>
<path d="M13.0756 230.808C12.5231 230.26 12.1548 229.528 12.1548 228.614V224.224H14.1806V228.614C14.1806 229.162 14.3647 229.711 14.5489 229.894C14.7331 230.077 15.1014 230.26 15.6539 230.26C16.2064 230.26 16.5747 230.077 16.7589 229.894C16.943 229.711 17.1272 229.162 17.1272 228.614V224.224H19.153V228.614C19.153 229.528 18.7847 230.26 18.2322 230.808C17.6797 231.357 16.7589 231.54 15.6539 231.54C14.5489 231.54 13.6281 231.357 13.0756 230.808Z" fill="white"/>
<path d="M27.8087 224.224V231.54H26.1512L22.8363 226.968L23.0204 229.345V231.54H20.9946V224.224H22.6521L25.9671 228.797L25.7829 226.419V224.224H27.8087Z" fill="white"/>
<path d="M29.6504 224.224H31.6762V231.54H29.6504V224.224Z" fill="white"/>
<path d="M34.8069 230.991C34.2544 230.626 33.7019 230.26 33.5177 229.711C33.1494 229.162 33.1494 228.431 33.1494 227.882C33.1494 227.151 33.3336 226.602 33.5177 226.053C33.8861 225.505 34.2544 224.956 34.8069 224.773C35.3594 224.407 36.096 224.224 37.0169 224.224C37.9377 224.224 38.4902 224.407 39.2268 224.773C39.7793 225.139 40.3318 225.505 40.516 226.053C40.7001 226.602 40.8843 227.334 40.8843 227.882C40.8843 228.614 40.7001 229.162 40.516 229.711C40.1476 230.26 39.7793 230.808 39.2268 230.991C38.6743 231.357 37.9377 231.54 37.0169 231.54C36.096 231.54 35.5435 231.357 34.8069 230.991ZM38.1218 229.894C38.4902 229.711 38.6743 229.345 38.8585 228.98C39.0427 228.614 39.0427 228.248 39.0427 227.699C39.0427 226.968 38.8585 226.419 38.4902 226.053C38.1218 225.687 37.5693 225.322 37.0169 225.322C36.4644 225.322 35.9119 225.505 35.5435 226.053C35.1752 226.419 34.9911 227.151 34.9911 227.699C34.9911 228.065 34.9911 228.614 35.1752 228.98C35.3594 229.345 35.5435 229.711 35.9119 229.894C36.2802 230.077 36.6485 230.26 37.0169 230.26C37.3852 230.26 37.7535 230.077 38.1218 229.894Z" fill="white"/>
<path d="M49.3559 224.224V231.54H47.6984L44.3835 226.968L44.5676 229.345V231.54H42.3577V224.224H44.1993L47.5142 228.797L47.3301 226.419V224.224H49.3559Z" fill="white"/>
<path d="M60.0374 224.773C60.4057 225.139 60.774 225.688 60.774 226.419C60.774 227.151 60.5898 227.699 60.0374 228.065C59.669 228.431 58.9324 228.614 58.0116 228.614H56.5383V231.54H55.6174V224.224H58.1957C58.9324 224.224 59.4849 224.407 60.0374 224.773ZM59.669 226.236C59.669 225.87 59.4849 225.505 59.3007 225.139C58.9324 224.956 58.564 224.773 58.0116 224.773H56.5383V227.516H58.0116C59.1165 227.699 59.669 227.151 59.669 226.236Z" fill="white"/>
<path d="M63.1682 230.991C62.6157 230.626 62.2474 230.26 61.8791 229.528C61.6949 228.98 61.5107 228.248 61.5107 227.699C61.5107 226.968 61.6949 226.419 61.8791 225.87C62.0632 225.322 62.6157 224.773 63.1682 224.59C63.7207 224.224 64.2732 224.042 65.194 224.042C65.9307 224.042 66.6673 224.224 67.2198 224.59C67.7723 224.956 68.1406 225.322 68.509 225.87C68.6931 226.419 68.8773 227.151 68.8773 227.699C68.8773 228.431 68.6931 228.98 68.509 229.711C68.3248 230.26 67.7723 230.808 67.2198 231.174C66.6673 231.54 66.1148 231.723 65.194 231.723C64.4574 231.54 63.7207 231.357 63.1682 230.991ZM66.6673 230.443C67.0357 230.26 67.404 229.894 67.5881 229.345C67.7723 228.797 67.9565 228.431 67.9565 227.699C67.9565 227.151 67.7723 226.602 67.5881 226.236C67.404 225.87 67.0357 225.505 66.6673 225.139C66.299 224.956 65.7465 224.773 65.194 224.773C64.6415 224.773 64.089 224.956 63.7207 225.139C63.3524 225.322 62.984 225.688 62.7999 226.236C62.6157 226.602 62.4316 227.151 62.4316 227.699C62.4316 228.248 62.6157 228.797 62.7999 229.345C62.984 229.894 63.3524 230.077 63.7207 230.443C64.089 230.808 64.6415 230.808 65.194 230.808C65.7465 230.808 66.299 230.626 66.6673 230.443Z" fill="white"/>
<path d="M74.9546 224.773C75.3229 225.139 75.6912 225.688 75.6912 226.419C75.6912 227.151 75.5071 227.699 74.9546 228.065C74.5863 228.431 73.8496 228.614 72.9288 228.614H71.4555V231.54H70.5347V224.224H73.113C73.8496 224.224 74.5863 224.407 74.9546 224.773ZM74.7704 226.236C74.7704 225.87 74.5863 225.505 74.4021 225.139C74.0338 224.956 73.6655 224.773 73.113 224.773H71.6397V227.516H73.113C74.2179 227.699 74.7704 227.151 74.7704 226.236Z" fill="white"/>
<path d="M77.9012 230.808C77.3487 230.26 77.1646 229.528 77.1646 228.797V224.224H78.0854V228.797C78.0854 229.528 78.2695 230.077 78.6379 230.443C79.0062 230.808 79.5587 230.991 80.1112 230.991C80.6637 230.991 81.2161 230.808 81.5845 230.443C81.9528 230.077 82.137 229.528 82.137 228.797V224.224H83.0578V228.797C83.0578 229.711 82.8736 230.443 82.3211 230.991C81.7686 231.54 81.032 231.723 80.1112 231.723C79.1903 231.54 78.4537 231.357 77.9012 230.808Z" fill="white"/>
<path d="M89.8718 230.626V231.357H85.4519V224.042H86.3727V230.626H89.8718Z" fill="white"/>
<path d="M95.0285 229.162H92.0819L91.1611 231.357H90.2402L93.0027 224.042H93.9235L96.686 231.357H95.7651L95.0285 229.162ZM94.8443 228.431L93.7393 225.139L92.6344 228.431H94.8443Z" fill="white"/>
<path d="M98.3435 224.224H99.2643V231.54H98.3435V224.224Z" fill="white"/>
<path d="M104.052 228.248H102.763V231.357H101.843V224.042H104.237C105.157 224.042 105.71 224.224 106.078 224.59C106.447 224.956 106.815 225.505 106.815 226.053C106.815 226.602 106.631 226.968 106.447 227.334C106.078 227.699 105.71 227.882 105.157 228.065L107.552 231.357H106.447L104.052 228.248ZM102.763 227.516H104.237C105.342 227.516 105.71 227.151 105.71 226.236C105.71 225.87 105.526 225.505 105.342 225.322C105.157 225.139 104.605 224.956 104.237 224.956H102.763V227.516Z" fill="white"/>
<path d="M113.629 230.626V231.357H109.209V224.042H113.445V224.773H110.13V227.151H112.892V227.882H110.13V230.626H113.629Z" fill="white"/>
<path d="M121.548 228.248H120.259V231.357H119.338V224.041H121.732C122.653 224.041 123.206 224.224 123.574 224.59C123.942 224.956 124.311 225.504 124.311 226.053C124.311 226.602 124.126 226.968 123.942 227.333C123.574 227.699 123.206 227.882 122.653 228.065L125.047 231.357H123.942L121.548 228.248ZM120.259 227.516H121.732C122.837 227.516 123.206 227.15 123.206 226.236C123.206 225.87 123.021 225.504 122.837 225.321C122.653 225.139 122.101 224.956 121.732 224.956H120.259V227.516Z" fill="white"/>
<path d="M130.94 230.625V231.357H126.521V224.041H130.756V224.773H127.441V227.151H130.204V227.882H127.441V230.625H130.94ZM129.651 221.847H130.572L129.099 223.493H128.362L129.651 221.847Z" fill="white"/>
<path d="M137.202 224.773C137.57 225.139 137.939 225.688 137.939 226.419C137.939 227.151 137.754 227.699 137.202 228.065C136.834 228.431 136.097 228.614 135.176 228.614H133.703V231.54H132.782V224.224H135.36C136.097 224.224 136.834 224.407 137.202 224.773ZM137.018 226.236C137.018 225.87 136.834 225.505 136.649 225.139C136.281 224.956 135.913 224.773 135.36 224.773H133.887V227.516H135.36C136.465 227.699 137.018 227.151 137.018 226.236Z" fill="white"/>
<path d="M140.149 230.808C139.596 230.26 139.412 229.528 139.412 228.797V224.224H140.333V228.797C140.333 229.528 140.517 230.077 140.885 230.443C141.254 230.808 141.806 230.991 142.358 230.991C142.911 230.991 143.463 230.808 143.832 230.443C144.2 230.077 144.384 229.528 144.384 228.797V224.224H145.305V228.797C145.305 229.711 145.121 230.443 144.568 230.991C144.016 231.54 143.279 231.723 142.358 231.723C141.438 231.54 140.701 231.357 140.149 230.808Z" fill="white"/>
<path d="M152.303 228.248C152.488 228.614 152.672 228.979 152.672 229.345C152.672 229.894 152.488 230.442 151.935 230.808C151.567 231.174 150.83 231.357 149.909 231.357H147.515V224.041H149.909C150.646 224.041 151.198 224.224 151.567 224.59C151.935 224.956 152.119 225.321 152.119 225.87C152.119 226.236 151.935 226.602 151.751 226.785C151.567 227.15 151.198 227.333 150.83 227.333C151.567 227.699 151.935 227.882 152.303 228.248ZM148.62 224.956V227.333H150.093C150.462 227.333 150.83 227.15 151.014 226.968C151.198 226.785 151.383 226.419 151.383 226.053C151.383 225.687 151.198 225.321 151.014 225.139C150.83 224.956 150.462 224.773 150.093 224.773H148.62V224.956ZM151.198 230.26C151.567 230.077 151.567 229.711 151.567 229.345C151.567 228.979 151.383 228.614 151.198 228.248C150.83 228.065 150.462 227.882 149.909 227.882H148.436V230.625H149.909C150.646 230.625 151.014 230.625 151.198 230.26Z" fill="white"/>
<path d="M158.933 230.625V231.357H154.513V224.041H155.434V230.625H158.933Z" fill="white"/>
<path d="M160.407 224.224H161.328V231.54H160.407V224.224Z" fill="white"/>
<path d="M164.827 230.991C164.274 230.625 163.906 230.26 163.538 229.528C163.169 228.979 163.169 228.248 163.169 227.699C163.169 227.15 163.353 226.419 163.538 225.87C163.906 225.321 164.274 224.773 164.827 224.59C165.379 224.224 166.116 224.041 166.852 224.041C167.405 224.041 167.773 224.041 168.142 224.224C168.51 224.407 168.878 224.59 169.247 224.956L168.878 225.687C168.694 225.504 168.326 225.321 167.957 225.139C167.589 224.956 167.221 224.956 166.852 224.956C166.3 224.956 165.747 225.139 165.379 225.321C165.011 225.504 164.643 225.87 164.458 226.419C164.274 226.785 164.09 227.333 164.09 227.882C164.09 228.431 164.274 228.979 164.458 229.528C164.643 229.894 165.011 230.26 165.379 230.625C165.747 230.808 166.3 230.991 166.852 230.991C167.773 230.991 168.51 230.625 169.062 230.077L169.431 230.808C169.062 231.174 168.694 231.357 168.326 231.54C167.957 231.723 167.405 231.906 166.852 231.906C166.116 231.54 165.379 231.357 164.827 230.991Z" fill="white"/>
<path d="M174.955 229.162H172.009L171.088 231.357H170.167L172.93 224.041H173.851L176.613 231.357H175.692L174.955 229.162ZM174.771 228.431L173.666 225.139L172.561 228.431H174.771Z" fill="white"/>
<path d="M178.271 224.224H179.191V231.54H178.271V224.224Z" fill="white"/>
<path d="M187.663 224.224V231.54H186.742L182.69 225.87V228.431V231.54H181.77V224.224H182.69L186.742 229.894V227.151V224.224H187.663Z" fill="white"/>
<path d="M194.477 230.625V231.357H190.057V224.041H194.293V224.773H190.978V227.15H193.74V227.882H190.978V230.625H194.477Z" fill="white"/>
<path d="M119.891 59.6225C120.075 55.2331 121.364 51.0266 122.837 46.8201C123.574 44.4425 124.311 42.0649 125.416 39.8702L123.942 35.298C123.942 35.298 117.681 49.1977 119.891 60.1711C119.891 60.1711 119.891 59.8053 119.891 59.6225C120.443 51.941 119.891 59.8053 119.891 59.6225Z" fill="white"/>
<path d="M85.2679 57.7934C85.6363 57.9763 87.4779 61.2684 88.5829 62.7315C88.9512 61.6341 89.3196 60.3539 89.6879 59.0737C88.0304 58.1592 84.8996 57.6106 85.2679 57.7934C85.6363 57.7934 84.8996 57.6106 85.2679 57.7934Z" fill="white"/>
<path d="M132.414 57.2449C132.966 58.1593 133.335 59.0738 133.703 59.8053L134.071 60.354C134.44 61.0856 134.992 61.8171 135.361 62.5487C137.018 60.5369 138.491 58.5251 139.965 56.5133C141.254 54.6844 142.727 52.6726 143.832 50.6608C144.569 49.1977 145.121 47.7345 145.858 46.2714C146.226 45.1741 146.963 44.0767 147.147 42.9794C144.937 44.4425 143.095 46.2714 140.885 47.7345C137.755 50.1121 134.44 52.3068 131.677 55.2331C132.046 56.3304 132.414 57.062 132.414 57.2449C132.782 57.6106 132.414 57.062 132.414 57.2449Z" fill="white"/>
<path d="M46.4094 75.7168C46.4094 75.7168 46.5936 75.7168 46.7778 75.8997C48.4352 74.8024 50.2769 73.705 53.5918 72.2419C51.0135 71.5104 48.2511 70.9617 45.4886 71.1446C42.9103 71.1446 40.332 71.8761 38.1221 73.1564C39.4112 73.3393 40.5162 73.705 41.6212 73.8879C43.4628 74.2537 44.9361 74.9853 46.4094 75.7168C46.5936 75.7168 45.4886 75.3511 46.4094 75.7168Z" fill="white"/>
<path d="M76.4281 62.7316C76.6123 63.0973 77.1648 63.646 77.5331 64.0118C76.6123 60.9026 75.8756 57.6106 75.5073 54.3186C75.139 50.6608 75.3231 47.1858 75.6915 43.528C75.139 42.4307 74.5865 41.1504 74.034 40.0531C73.8498 39.8702 72.929 38.0413 73.1132 37.8584C72.929 38.0413 73.1132 38.59 73.1132 38.7729C73.1132 39.5044 72.929 40.4189 72.929 41.1504C72.7448 43.528 72.7449 45.7227 72.5607 48.1003C72.5607 50.1121 72.3765 52.1239 72.7449 53.9528C73.4815 57.2448 74.9548 60.1711 76.4281 62.7316C76.6123 63.0973 75.3231 60.7198 76.4281 62.7316Z" fill="white"/>
<path d="M169.615 89.6166C167.589 89.6166 165.563 89.7995 163.537 89.2508C161.512 88.7021 159.67 87.9706 157.828 87.0561C156.539 86.3246 155.25 85.2272 153.777 85.0443C152.672 84.8614 151.751 85.2272 150.83 85.593C148.436 86.5074 146.41 87.9706 144.384 89.4337C143.464 89.9824 142.727 90.7139 141.99 91.2626C141.622 91.6284 141.254 91.9942 140.701 92.1771C140.885 91.4455 141.069 90.7139 141.254 89.9824C141.622 88.3364 141.806 86.6903 142.174 85.0443C142.359 83.947 142.359 82.8496 142.359 81.7523C142.359 80.6549 142.174 79.1918 142.359 78.0945H143.279C143.279 78.0945 143.279 78.0945 143.464 78.0945C144.753 81.9352 150.462 82.1181 153.593 80.6549C155.066 79.9234 156.539 78.6431 156.539 76.8142C156.539 74.8024 154.513 73.5222 152.856 72.7906C154.329 72.6077 156.355 72.0591 157.092 70.4131C157.644 68.9499 156.723 67.3039 155.434 66.3895C153.777 65.1092 151.751 64.5606 149.725 64.7434C148.068 64.9263 145.858 65.475 145.121 67.121C144.937 67.121 143.648 67.121 143.464 67.121C143.464 66.0237 143.279 64.9263 143.095 63.829C143.095 63.4632 142.911 62.5487 142.543 62.3659C141.622 61.8172 141.99 63.4632 141.99 63.829C142.174 64.1948 142.174 64.7434 142.174 65.2921C142.359 66.2066 142.359 67.121 142.359 68.0355C142.543 69.4986 142.543 70.9617 142.359 72.4249C142.174 73.7051 141.806 74.9853 141.438 76.0827C141.07 78.2774 141.07 80.4721 141.07 82.6667C141.07 85.2272 140.517 87.6048 140.149 89.9824C139.965 90.531 139.965 91.0797 139.78 91.6284C139.78 91.8113 139.596 91.9942 139.412 91.8113C138.86 90.3482 138.675 88.885 138.307 87.4219C138.307 86.5074 138.307 85.7759 138.307 85.7759V85.593C139.228 79.7405 139.412 73.3393 136.834 67.8526C135.36 64.7434 133.519 61.8172 131.861 58.8909C131.125 57.6107 130.572 56.1476 129.836 54.8673C130.02 57.4278 129.836 59.9883 130.02 62.7316C130.02 66.0237 130.02 69.3157 130.572 72.4249C131.125 75.534 132.23 78.2774 133.519 81.0207C134.071 82.301 134.624 83.5812 135.36 84.6785C135.729 85.2272 136.097 85.593 136.465 85.9588C136.834 86.5075 137.018 87.0561 137.202 87.6048C137.202 87.7877 137.202 87.7877 137.202 87.9706C138.123 92.1771 138.86 96.3836 140.149 100.407C134.44 96.9322 126.889 94.006 124.679 92.1771C124.679 88.3364 123.758 84.3128 122.653 80.6549C122.285 79.5576 122.101 78.4603 121.548 77.5458C121.364 76.9971 120.443 75.534 120.996 74.9853C121.732 74.4367 123.574 76.2656 123.758 76.8142C122.469 79.0089 123.758 82.4838 125.231 84.3128C126.521 85.7759 129.283 87.7877 131.309 86.1417C133.15 84.4956 132.23 80.8378 131.309 79.0089C130.204 76.8142 127.81 74.9853 125.231 75.8998C124.679 75.534 124.126 75.1682 123.574 74.8024C123.206 74.6195 122.469 74.4367 122.285 74.0709C122.285 74.0709 122.285 74.0709 122.285 73.888C122.285 73.7051 122.469 73.7051 122.469 73.5222C123.021 72.7906 123.574 72.242 124.126 71.5104C124.863 70.9617 125.416 70.2302 126.336 69.6815C127.257 69.1328 128.362 68.5841 129.099 67.8526C129.099 64.9263 128.915 61.8172 128.915 58.8909C127.257 61.8172 126.336 65.1092 125.231 68.2184C124.495 69.1328 124.126 70.0473 123.39 70.9617C123.021 71.3275 122.653 71.8762 122.285 72.242C122.101 72.6077 121.548 72.7906 121.364 73.1564C120.996 70.9617 121.916 68.767 122.837 66.7552C124.126 63.6461 126.521 61.0856 127.81 57.7936C129.099 54.8673 129.099 51.5753 129.283 48.4662C129.467 45.1741 129.467 41.8821 129.651 38.7729C129.651 37.8585 129.651 36.944 129.651 35.8467C129.651 35.298 129.467 35.298 129.099 35.8467C125.968 40.0532 124.126 45.7228 122.653 50.8437C121.548 54.6844 120.811 58.5252 120.627 62.5487C120.443 65.1092 120.443 67.4868 120.443 70.0473C120.443 70.9617 120.443 72.0591 120.259 72.9735C120.075 73.5222 119.338 72.0591 119.154 72.0591C118.233 70.5959 117.681 68.767 116.944 67.3039C115.839 64.7434 114.734 62.183 113.261 59.8054C111.603 57.2449 109.393 54.8673 106.999 53.0384C104.053 50.6608 100.553 49.0148 97.4227 46.8201C97.9752 47.3688 98.1594 48.2833 98.5277 49.0148C99.0802 50.1122 99.4485 51.2095 100.001 52.4898C100.369 53.2213 100.553 53.9529 101.106 54.6844C101.29 55.0502 101.658 55.416 102.027 55.5989C102.763 56.5133 103.5 57.6107 104.237 58.5252C105.894 60.7198 107.368 63.4632 109.762 65.1092C110.867 66.0237 112.34 66.5723 113.445 67.3039C114.55 68.0355 115.471 68.767 116.392 69.6815C117.128 70.7788 117.865 71.8762 118.417 72.9735C119.154 74.0709 118.233 74.8024 117.312 75.3511C115.102 73.888 112.524 76.0827 111.419 77.7287C109.946 79.7405 108.657 83.5812 110.682 85.593C112.524 87.239 115.287 85.7759 116.76 84.3128C118.786 82.301 119.891 78.4602 118.049 76.0827C118.602 75.534 119.154 75.3511 119.522 76.0827C119.707 76.6313 120.075 77.3629 120.259 77.9116C120.443 78.826 120.811 79.7405 120.996 80.6549C121.364 82.4838 121.548 84.3128 121.732 86.1417C121.732 87.0561 121.732 87.9706 121.364 88.7021C120.996 89.4337 119.707 89.4337 119.154 89.4337C116.576 88.7021 113.445 87.7877 110.13 86.6903C109.393 85.593 108.657 84.3128 108.288 83.2154C108.104 80.2892 109.025 77.5458 109.025 74.6195C109.209 71.5104 109.209 68.0355 108.473 64.9263C107.183 63.6461 106.078 62.183 104.973 60.7198C103.868 59.0738 102.763 57.6107 101.474 56.1476C101.474 58.5252 101.658 61.0856 101.658 63.4632C101.658 65.2921 101.658 67.3039 102.027 69.1328C103.132 70.7788 104.237 72.4249 104.973 74.2538C105.71 75.8998 106.447 77.9116 106.263 79.7405C106.447 80.2892 106.447 80.472 106.447 80.472C106.815 82.4838 107.736 84.1299 108.657 85.7759V85.9588C108.104 85.7759 107.736 85.593 107.183 85.4101C106.631 84.6785 106.263 83.3983 105.894 82.4838C105.71 81.9352 105.526 81.5694 105.342 81.0207C105.158 80.2892 105.342 79.5576 105.342 78.826C105.342 76.9971 104.605 75.1682 103.868 73.7051C102.395 70.4131 100.185 67.4868 97.6069 65.1092C97.4227 64.9263 97.2385 64.7434 97.0544 64.5605C96.3177 67.121 95.3969 69.3157 93.5553 71.1446C94.2919 72.6077 95.3969 73.888 96.1336 75.3511C96.8702 76.6313 97.791 77.9116 99.0802 78.826C100.369 79.7405 102.027 79.7405 103.316 80.6549C103.868 81.0207 104.421 81.5694 104.605 82.301C104.973 83.2154 105.342 83.947 105.71 84.8614C102.579 83.5812 99.8168 81.9352 96.8702 80.2892C94.1078 78.826 91.3453 77.18 88.5828 75.7169L89.5037 72.7906C92.2661 71.3275 94.2919 69.1328 95.2127 66.2066C96.8702 61.6343 97.0544 56.8791 97.0544 52.124C92.8186 53.2213 90.7928 58.5252 89.6878 62.183C89.1353 64.3777 88.5828 66.5723 88.5828 68.767C88.5828 70.5959 88.9512 72.4249 88.2145 74.2538C87.8462 72.9735 85.8204 73.1564 85.6362 74.4367C83.7946 73.3393 82.1371 72.4249 80.4796 71.5104C80.4796 70.9617 80.4796 70.0473 80.4796 70.0473C80.4796 70.0473 80.4796 68.767 80.2955 66.7552C80.2955 66.7552 80.2955 66.7552 80.2955 66.5723C81.2163 64.9263 85.6362 55.2331 77.533 35.6638C76.7964 40.0532 76.2439 44.4426 76.0597 48.8319C76.0597 54.3187 77.3489 60.3541 79.1905 65.8408C79.1905 65.8408 79.3747 66.3895 79.5588 66.7552L79.743 70.4131C78.4538 69.6815 77.3489 68.9499 76.2439 68.2184C76.2439 68.2184 75.8756 68.0355 75.3231 67.4868C75.1389 67.3039 74.9547 67.121 74.7706 66.7552C72.3764 63.2803 69.0615 60.3541 65.7466 57.7936C62.4316 55.2331 58.7483 53.0384 54.8809 51.3924C50.6451 49.5635 46.2252 48.8319 41.6211 48.1004C41.2528 48.1004 40.8845 48.1004 40.7003 47.9175C40.8845 49.1977 42.1736 50.2951 42.9102 51.2095C44.0152 52.4898 45.3044 53.5871 46.4094 54.8673C48.8035 57.2449 51.3818 59.6225 54.3284 61.0856C57.275 62.5488 60.59 63.6461 63.7207 64.5605C66.4832 65.475 69.4298 66.3895 72.3764 66.7552C72.5606 66.7552 72.5606 66.7552 72.7448 66.7552C72.9289 66.7552 72.9289 66.7552 73.1131 66.9381C73.8498 67.4868 74.4022 67.8526 74.7706 68.2184C75.6914 68.9499 77.3489 70.2302 79.3747 71.6933C79.0063 71.6933 78.4538 71.6933 78.0855 71.5104H77.9014C71.824 69.4986 64.4574 68.767 58.1958 71.3275C55.6175 72.242 53.0393 73.5222 50.6451 74.6195C48.9877 75.534 47.5143 76.4485 46.041 77.5458C44.3836 78.826 42.7261 80.2892 41.2528 81.7523C40.1478 82.8496 39.0428 83.947 38.122 85.2272C37.2012 86.3246 36.0962 87.7877 35.5437 89.2508C39.227 87.9706 42.7261 86.6903 46.2252 85.2272C48.6193 84.3128 50.8293 83.3983 53.2234 82.4838C54.3284 81.9352 55.2492 81.3865 56.17 80.8378C58.7483 79.5576 61.3266 78.2774 63.7207 76.8142C65.0099 76.0827 66.299 75.3511 67.404 74.6195C68.1407 74.0709 69.0615 73.7051 69.614 72.9735C70.1665 72.6077 70.719 72.242 71.2715 72.0591C73.2973 71.5104 75.6914 72.242 77.3489 72.6077C77.3489 72.6077 77.7172 72.6077 78.2697 72.7906C79.3747 72.9735 81.0321 73.5222 81.7688 73.7051C82.5054 74.2538 83.2421 74.6195 83.9788 75.1682C82.5054 74.6195 80.2955 76.2656 82.1371 77.5458C83.4263 78.4603 86.1887 77.18 84.7154 75.534C85.4521 76.0827 86.3729 76.6313 86.9254 76.9971C86.3729 77.18 85.6362 77.5458 85.0837 77.7287C84.3471 77.9116 83.6104 78.0945 82.8738 78.0945C81.4005 78.0945 79.9272 77.7287 78.638 77.3629C75.5072 76.6313 72.3764 75.7169 69.2457 74.6195C65.5624 77.3629 61.1425 79.1918 57.275 81.3865C62.6158 82.8496 68.1407 83.2154 73.4814 82.4838C77.1647 81.9352 80.4796 80.472 83.7946 79.1918C84.7154 79.0089 85.4521 78.826 86.3729 78.6431C87.1095 78.4603 88.0304 78.4603 88.5828 77.9116C88.767 77.9116 88.767 78.0945 88.9512 78.0945C88.9512 78.0945 90.7928 79.1918 93.1869 80.6549C91.8978 80.8378 90.6087 80.8378 89.1353 80.8378C88.767 80.8378 88.3987 80.6549 88.0304 80.472C86.1887 79.9234 84.1629 80.1063 82.5054 80.6549C79.1905 81.5694 76.0597 83.0325 73.2973 84.8614C69.4298 87.4219 66.8515 90.8968 64.6416 94.9204C63.1683 97.4809 62.2474 100.407 62.4316 103.333C62.4316 103.333 62.4316 103.333 62.4316 103.516C63.5366 100.956 66.299 99.3098 68.509 97.8467C71.824 95.652 75.5072 94.1889 78.8222 91.8113C81.7688 89.7995 84.3471 87.4219 86.9254 85.0443C87.662 84.3128 88.5828 83.3983 89.3195 82.6667C89.6878 82.1181 90.2403 82.1181 90.7928 81.9352C92.082 81.7523 93.3711 81.7523 94.6603 81.5694C99.2643 84.4956 104.789 88.1535 104.973 88.885C104.237 89.6166 103.132 90.1653 102.211 90.7139C101.658 91.0797 100.922 91.4455 100.369 91.8113C99.8168 91.9942 99.2643 91.9942 98.7118 91.9942C95.7652 92.36 92.4503 93.2744 89.872 94.5546C87.2937 95.8349 84.8996 97.6638 82.6896 99.4927C81.5846 100.59 80.2955 101.505 79.1905 102.419C78.0855 103.333 76.6122 104.248 75.6914 105.345C78.4538 105.528 81.2163 104.614 83.7946 104.065C86.9254 103.333 89.872 102.602 92.4503 100.773C95.0286 98.944 97.4227 96.5664 99.4485 94.3718C100.369 93.4573 101.106 92.36 102.211 91.6284C103.5 90.8968 104.789 90.3482 105.894 89.7995C107.183 89.7995 108.288 89.9824 109.578 90.1653C110.682 90.3482 111.787 90.7139 112.892 91.0797C114.734 91.6284 116.576 91.9942 118.233 92.7257C120.627 93.6402 123.021 94.3718 125.231 95.8349C127.994 97.4809 130.572 99.3098 133.15 100.956L127.073 101.322C126.705 101.322 126.336 100.956 125.968 100.773C125.416 100.59 124.679 100.224 124.126 100.041C122.837 99.4927 121.548 99.1269 120.259 98.5782C117.681 97.8467 115.102 97.4809 112.34 97.6638C109.578 97.8467 106.815 98.3954 104.237 98.7611C102.948 98.944 101.474 99.3098 100.185 99.4927C100.001 99.4927 98.7118 99.6756 98.7118 99.8585C98.7118 100.041 99.0802 100.041 99.2643 100.224C100.738 100.773 102.395 101.139 104.053 101.505C105.894 101.87 107.552 102.236 109.393 102.602C112.892 103.333 116.576 104.065 120.075 103.882C121.732 103.699 123.574 103.516 125.231 102.968C126.336 102.602 127.441 102.236 128.731 102.053C130.02 101.87 131.125 101.87 132.414 102.053C133.335 102.053 134.255 102.236 135.176 102.236C137.202 103.699 139.228 105.162 140.885 106.991C142.174 108.454 143.648 109.735 145.121 110.832C146.779 111.929 148.436 113.027 150.094 113.941C151.199 114.49 152.303 115.221 153.408 115.587C155.434 116.684 160.591 112.661 157.828 111.015C155.803 110.466 153.777 109.552 151.751 108.637C149.909 107.723 148.252 106.625 146.779 105.345C145.305 104.065 144.016 102.419 142.359 101.139C141.806 99.6756 141.254 98.2125 140.885 96.9322C140.517 96.0178 139.78 94.7375 140.333 93.8231C141.069 92.7257 141.99 91.6284 143.095 90.8968C144.2 89.9824 145.858 88.7021 147.331 88.7021C148.252 88.7021 149.173 89.2508 149.909 89.7995C150.83 90.3482 151.751 91.0797 152.672 91.6284C154.698 92.7257 157.276 93.4573 159.486 93.6402C161.696 93.8231 163.906 93.4573 165.932 92.7257C167.037 92.36 167.957 91.9942 168.878 91.4455C169.431 91.0797 170.72 90.531 171.088 89.7995C170.904 89.6166 170.167 89.6166 169.615 89.6166C170.167 89.6166 168.878 89.6166 169.615 89.6166ZM143.464 71.3275C143.464 69.6815 143.464 67.6697 143.464 67.6697H143.648C143.648 67.6697 144.016 67.6697 144.384 67.8526C144.2 69.4986 145.858 71.1446 148.252 72.0591C145.858 72.4249 142.727 74.0709 142.911 76.8142H141.99C142.359 76.8142 142.359 74.2538 143.464 71.3275C143.464 69.6815 142.359 74.2538 143.464 71.3275Z" fill="white"/>
<path d="M69.614 59.8054C73.2973 63.0974 75.3231 65.8408 75.6914 66.3894C75.8756 64.1947 74.4023 61.8172 73.4815 59.8054C71.4557 56.1476 69.2457 52.6726 66.1149 49.9293C63.905 47.7346 61.1425 46.0886 58.7484 44.2596C57.6434 43.5281 56.7226 42.6136 55.6176 41.8821C54.6968 41.1505 53.5918 40.2361 52.4868 39.6874C52.4868 39.6874 56.5384 49.0148 58.3801 52.124C63.1683 54.5015 67.0357 57.4278 69.614 59.8054C73.2973 62.9145 67.0357 57.4278 69.614 59.8054Z" fill="white"/>
<path d="M81.216 207.215H36.6484V210.324H81.216V207.215Z" fill="#2A3582"/>
<path d="M170.351 207.215H125.784V210.324H170.351V207.215Z" fill="#E80000"/>
<path d="M125.784 207.215H81.2161V210.324H125.784V207.215Z" fill="white"/>
</svg>
