<svg width="100" height="109" viewBox="0 0 100 109" fill="none" xmlns="http://www.w3.org/2000/svg">
<path d="M98.7002 0.5V98.7002H0.5V0.5H98.7002Z" stroke="white"/>
<path d="M51.3002 86.6C55.1002 86.6 58.1002 85.7 60.4002 83.9C62.7002 82.1 63.8002 79.3 63.8002 75.4C63.8002 73 63.4002 70.9 62.5002 69.2C61.6002 67.5 60.4002 66.2 58.9002 65.3C57.4002 64.4 55.6002 64 53.5002 64C51.2002 64 49.1002 64.7 47.3002 66.1L46.7002 64.5H41.7002V92.8H48.4002V86.5C49.3002 86.5 50.3002 86.6 51.3002 86.6ZM48.4002 69.8C49.1002 69.4 49.7002 69.1 50.4002 68.9C51.1002 68.7 51.9002 68.6 52.7002 68.6C55.6002 68.6 57.0002 70.8 57.0002 75.1C57.0002 77.3 56.5002 79 55.5002 80.1C54.5002 81.2 52.9002 81.7 50.8002 81.7C50.0002 81.7 49.2002 81.6 48.3002 81.4V69.8H48.4002Z" fill="white"/>
<path d="M33.7002 64.3V86.1H28.7002L28.0002 84.3C25.5002 85.8 23.1002 86.6 20.7002 86.6C17.9002 86.6 15.9002 85.8 14.8002 84.3C13.7002 82.8 13.2002 80.6 13.2002 77.8V64.3H19.9002V76.9C19.9002 78.7 20.1002 79.9 20.5002 80.6C20.9002 81.3 21.7002 81.6 22.9002 81.6C24.2002 81.6 25.5002 81.2 26.9002 80.3V64.3H33.7002Z" fill="white"/>
<path d="M84.0001 70.3C82.7001 70.3 81.5001 70.4 80.4001 70.5C79.3001 70.7 78.1001 71 76.8001 71.4V86.1H70.1001V64.3H75.1001L76.1001 66.9C77.4001 65.8 78.7001 65.1 80.0001 64.6C81.3001 64.1 82.6001 63.9 84.0001 63.9V70.3Z" fill="white"/>
<path d="M58.5002 26C58.6002 23.6 59.3002 21.3 60.1002 19C60.5002 17.7 60.9002 16.4 61.5002 15.2L60.7002 12.7C60.7002 12.7 57.3002 20.3 58.5002 26.3C58.5002 26.3 58.5002 26.1 58.5002 26C58.8002 21.8 58.5002 26.1 58.5002 26Z" fill="white"/>
<path d="M39.7003 25C39.9003 25.1 40.9003 26.9 41.5003 27.7C41.7003 27.1 41.9003 26.4 42.1003 25.7C41.2003 25.2 39.5003 24.9 39.7003 25C39.9003 25 39.5003 24.9 39.7003 25Z" fill="white"/>
<path d="M65.3004 24.7C65.6004 25.2 65.8004 25.7 66.0004 26.1L66.2004 26.4C66.4004 26.8 66.7004 27.2 66.9004 27.6C67.8004 26.5 68.6004 25.4 69.4004 24.3C70.1004 23.3 70.9004 22.2 71.5004 21.1C71.9004 20.3 72.2004 19.5 72.6004 18.7C72.8004 18.1 73.2004 17.5 73.3004 16.9C72.1004 17.7 71.1004 18.7 69.9004 19.5C68.2004 20.8 66.4004 22 64.9004 23.6C65.1004 24.2 65.3004 24.6 65.3004 24.7C65.5004 24.9 65.3004 24.6 65.3004 24.7Z" fill="white"/>
<path d="M18.6001 34.8C18.6001 34.8 18.7001 34.8 18.8001 34.9C19.7001 34.3 20.7001 33.7 22.5001 32.9C21.1001 32.5 19.6001 32.2 18.1001 32.3C16.7001 32.3 15.3001 32.7 14.1001 33.4C14.8001 33.5 15.4001 33.7 16.0001 33.8C17.0001 34 17.8001 34.4 18.6001 34.8C18.7001 34.8 18.1001 34.6 18.6001 34.8Z" fill="white"/>
<path d="M34.9004 27.7C35.0004 27.9 35.3004 28.2 35.5004 28.4C35.0004 26.7 34.6004 24.9 34.4004 23.1C34.2004 21.1 34.3004 19.2 34.5004 17.2C34.2004 16.6 33.9004 15.9 33.6004 15.3C33.5004 15.2 33.0004 14.2 33.1004 14.1C33.0004 14.2 33.1004 14.5 33.1004 14.6C33.1004 15 33.0004 15.5 33.0004 15.9C32.9004 17.2 32.9004 18.4 32.8004 19.7C32.8004 20.8 32.7004 21.9 32.9004 22.9C33.3004 24.7 34.1004 26.3 34.9004 27.7C35.0004 27.9 34.3004 26.6 34.9004 27.7Z" fill="white"/>
<path d="M85.5002 42.4C84.4002 42.4 83.3002 42.5 82.2002 42.2C81.1002 41.9 80.1002 41.5 79.1002 41C78.4002 40.6 77.7002 40 76.9002 39.9C76.3002 39.8 75.8002 40 75.3002 40.2C74.0002 40.7 72.9002 41.5 71.8002 42.3C71.3002 42.6 70.9002 43 70.5002 43.3C70.3002 43.5 70.1002 43.7 69.8002 43.8C69.9002 43.4 70.0002 43 70.1002 42.6C70.3002 41.7 70.4002 40.8 70.6002 39.9C70.7002 39.3 70.7002 38.7 70.7002 38.1C70.7002 37.5 70.6002 36.7 70.7002 36.1H71.2002C71.2002 36.1 71.2002 36.1 71.3002 36.1C72.0002 38.2 75.1002 38.3 76.8002 37.5C77.6002 37.1 78.4002 36.4 78.4002 35.4C78.4002 34.3 77.3002 33.6 76.4002 33.2C77.2002 33.1 78.3002 32.8 78.7002 31.9C79.0002 31.1 78.5002 30.2 77.8002 29.7C76.9002 29 75.8002 28.7 74.7002 28.8C73.8002 28.9 72.6002 29.2 72.2002 30.1C72.1002 30.1 71.4002 30.1 71.3002 30.1C71.3002 29.5 71.2002 28.9 71.1002 28.3C71.1002 28.1 71.0002 27.6 70.8002 27.5C70.3002 27.2 70.5002 28.1 70.5002 28.3C70.6002 28.5 70.6002 28.8 70.6002 29.1C70.7002 29.6 70.7002 30.1 70.7002 30.6C70.8002 31.4 70.8002 32.2 70.7002 33C70.6002 33.7 70.4002 34.4 70.2002 35C70.0002 36.2 70.0002 37.4 70.0002 38.6C70.0002 40 69.7002 41.3 69.5002 42.6C69.4002 42.9 69.4002 43.2 69.3002 43.5C69.3002 43.6 69.2002 43.7 69.1002 43.6C68.8002 42.8 68.7002 42 68.5002 41.2C68.5002 40.7 68.5002 40.3 68.5002 40.3V40.2C69.0002 37 69.1002 33.5 67.7002 30.5C66.9002 28.8 65.9002 27.2 65.0002 25.6C64.6002 24.9 64.3002 24.1 63.9002 23.4C64.0002 24.8 63.9002 26.2 64.0002 27.7C64.0002 29.5 64.0002 31.3 64.3002 33C64.6002 34.7 65.2002 36.2 65.9002 37.7C66.2002 38.4 66.5002 39.1 66.9002 39.7C67.1002 40 67.3002 40.2 67.5002 40.4C67.7002 40.7 67.8002 41 67.9002 41.3C67.9002 41.4 67.9002 41.4 67.9002 41.5C68.4002 43.8 68.8002 46.1 69.5002 48.3C66.4002 46.4 62.3002 44.8 61.1002 43.8C61.1002 41.7 60.6002 39.5 60.0002 37.5C59.8002 36.9 59.7002 36.3 59.4002 35.8C59.3002 35.5 58.8002 34.7 59.1002 34.4C59.5002 34.1 60.5002 35.1 60.6002 35.4C59.9002 36.6 60.6002 38.5 61.4002 39.5C62.1002 40.3 63.6002 41.4 64.7002 40.5C65.7002 39.6 65.2002 37.6 64.7002 36.6C64.1002 35.4 62.8002 34.4 61.4002 34.9C61.1002 34.7 60.8002 34.5 60.5002 34.3C60.3002 34.2 59.9002 34.1 59.8002 33.9C59.8002 33.9 59.8002 33.9 59.8002 33.8C59.8002 33.7 59.9002 33.7 59.9002 33.6C60.2002 33.2 60.5002 32.9 60.8002 32.5C61.2002 32.2 61.5002 31.8 62.0002 31.5C62.5002 31.2 63.1002 30.9 63.5002 30.5C63.5002 28.9 63.4002 27.2 63.4002 25.6C62.5002 27.2 62.0002 29 61.4002 30.7C61.0002 31.2 60.8002 31.7 60.4002 32.2C60.2002 32.4 60.0002 32.7 59.8002 32.9C59.7002 33.1 59.4002 33.2 59.3002 33.4C59.1002 32.2 59.6002 31 60.1002 29.9C60.8002 28.2 62.1002 26.8 62.8002 25C63.5002 23.4 63.5002 21.6 63.6002 19.9C63.7002 18.1 63.7002 16.3 63.8002 14.6C63.8002 14.1 63.8002 13.6 63.8002 13C63.8002 12.7 63.7002 12.7 63.5002 13C61.8002 15.3 60.8002 18.4 60.0002 21.2C59.4002 23.3 59.0002 25.4 58.9002 27.6C58.8002 29 58.8002 30.3 58.8002 31.7C58.8002 32.2 58.8002 32.8 58.7002 33.3C58.6002 33.6 58.2002 32.8 58.1002 32.8C57.6002 32 57.3002 31 56.9002 30.2C56.3002 28.8 55.7002 27.4 54.9002 26.1C54.0002 24.7 52.8002 23.4 51.5002 22.4C49.9002 21.1 48.0002 20.2 46.3002 19C46.6002 19.3 46.7002 19.8 46.9002 20.2C47.2002 20.8 47.4002 21.4 47.7002 22.1C47.9002 22.5 48.0002 22.9 48.3002 23.3C48.4002 23.5 48.6002 23.7 48.8002 23.8C49.2002 24.3 49.6002 24.9 50.0002 25.4C50.9002 26.6 51.7002 28.1 53.0002 29C53.6002 29.5 54.4002 29.8 55.0002 30.2C55.6002 30.6 56.1002 31 56.6002 31.5C57.0002 32.1 57.4002 32.7 57.7002 33.3C58.1002 33.9 57.6002 34.3 57.1002 34.6C55.9002 33.8 54.5002 35 53.9002 35.9C53.1002 37 52.4002 39.1 53.5002 40.2C54.5002 41.1 56.0002 40.3 56.8002 39.5C57.9002 38.4 58.5002 36.3 57.5002 35C57.8002 34.7 58.1002 34.6 58.3002 35C58.4002 35.3 58.6002 35.7 58.7002 36C58.8002 36.5 59.0002 37 59.1002 37.5C59.3002 38.5 59.4002 39.5 59.5002 40.5C59.5002 41 59.5002 41.5 59.3002 41.9C59.1002 42.3 58.4002 42.3 58.1002 42.3C56.7002 41.9 55.0002 41.4 53.2002 40.8C52.8002 40.2 52.4002 39.5 52.2002 38.9C52.1002 37.3 52.6002 35.8 52.6002 34.2C52.7002 32.5 52.7002 30.6 52.3002 28.9C51.6002 28.2 51.0002 27.4 50.4002 26.6C49.8002 25.7 49.2002 24.9 48.5002 24.1C48.5002 25.4 48.6002 26.8 48.6002 28.1C48.6002 29.1 48.6002 30.2 48.8002 31.2C49.4002 32.1 50.0002 33 50.4002 34C50.8002 34.9 51.2002 36 51.1002 37C51.2002 37.3 51.2002 37.4 51.2002 37.4C51.4002 38.5 51.9002 39.4 52.4002 40.3V40.4C52.1002 40.3 51.9002 40.2 51.6002 40.1C51.3002 39.7 51.1002 39 50.9002 38.5C50.8002 38.2 50.7002 38 50.6002 37.7C50.5002 37.3 50.6002 36.9 50.6002 36.5C50.6002 35.5 50.2002 34.5 49.8002 33.7C49.0002 31.9 47.8002 30.3 46.4002 29C46.3002 28.9 46.2002 28.8 46.1002 28.7C45.7002 30.1 45.2002 31.3 44.2002 32.3C44.6002 33.1 45.2002 33.8 45.6002 34.6C46.0002 35.3 46.5002 36 47.2002 36.5C47.9002 37 48.8002 37 49.5002 37.5C49.8002 37.7 50.1002 38 50.2002 38.4C50.4002 38.9 50.6002 39.3 50.8002 39.8C49.1002 39.1 47.6002 38.2 46.0002 37.3C44.5002 36.5 43.0002 35.6 41.5002 34.8L42.0002 33.2C43.5002 32.4 44.6002 31.2 45.1002 29.6C46.0002 27.1 46.1002 24.5 46.1002 21.9C43.8002 22.5 42.7002 25.4 42.1002 27.4C41.8002 28.6 41.5002 29.8 41.5002 31C41.5002 32 41.7002 33 41.3002 34C41.1002 33.3 40.0002 33.4 39.9002 34.1C38.9002 33.5 38.0002 33 37.1002 32.5C37.1002 32.2 37.1002 31.7 37.1002 31.7C37.1002 31.7 37.1002 31 37.0002 29.9C37.0002 29.9 37.0002 29.9 37.0002 29.8C37.5002 28.9 39.9002 23.6 35.5002 12.9C35.1002 15.3 34.8002 17.7 34.7002 20.1C34.7002 23.1 35.4002 26.4 36.4002 29.4C36.4002 29.4 36.5002 29.7 36.6002 29.9L36.7002 31.9C36.0002 31.5 35.4002 31.1 34.8002 30.7C34.8002 30.7 34.6002 30.6 34.3002 30.3C34.2002 30.2 34.1002 30.1 34.0002 29.9C32.7002 28 30.9002 26.4 29.1002 25C27.3002 23.6 25.3002 22.4 23.2002 21.5C20.9002 20.5 18.5002 20.1 16.0002 19.7C15.8002 19.7 15.6002 19.7 15.5002 19.6C15.6002 20.3 16.3002 20.9 16.7002 21.4C17.3002 22.1 18.0002 22.7 18.6002 23.4C19.9002 24.7 21.3002 26 22.9002 26.8C24.5002 27.6 26.3002 28.2 28.0002 28.7C29.5002 29.2 31.1002 29.7 32.7002 29.9C32.8002 29.9 32.8002 29.9 32.9002 29.9C33.0002 29.9 33.0002 29.9 33.1002 30C33.5002 30.3 33.8002 30.5 34.0002 30.7C34.5002 31.1 35.4002 31.8 36.5002 32.6C36.3002 32.6 36.0002 32.6 35.8002 32.5H35.7002C32.4002 31.4 28.4002 31 25.0002 32.4C23.6002 32.9 22.2002 33.6 20.9002 34.2C20.0002 34.7 19.2002 35.2 18.4002 35.8C17.5002 36.5 16.6002 37.3 15.8002 38.1C15.2002 38.7 14.6002 39.3 14.1002 40C13.6002 40.6 13.0002 41.4 12.7002 42.2C14.7002 41.5 16.6002 40.8 18.5002 40C19.8002 39.5 21.0002 39 22.3002 38.5C22.9002 38.2 23.4002 37.9 23.9002 37.6C25.3002 36.9 26.7002 36.2 28.0002 35.4C28.7002 35 29.4002 34.6 30.0002 34.2C30.4002 33.9 30.9002 33.7 31.2002 33.3C31.5002 33.1 31.8002 32.9 32.1002 32.8C33.2002 32.5 34.5002 32.9 35.4002 33.1C35.4002 33.1 35.6002 33.1 35.9002 33.2C36.5002 33.3 37.4002 33.6 37.8002 33.7C38.2002 34 38.6002 34.2 39.0002 34.5C38.2002 34.2 37.0002 35.1 38.0002 35.8C38.7002 36.3 40.2002 35.6 39.4002 34.7C39.8002 35 40.3002 35.3 40.6002 35.5C40.3002 35.6 39.9002 35.8 39.6002 35.9C39.2002 36 38.8002 36.1 38.4002 36.1C37.6002 36.1 36.8002 35.9 36.1002 35.7C34.4002 35.3 32.7002 34.8 31.0002 34.2C29.0002 35.7 26.6002 36.7 24.5002 37.9C27.4002 38.7 30.4002 38.9 33.3002 38.5C35.3002 38.2 37.1002 37.4 38.9002 36.7C39.4002 36.6 39.8002 36.5 40.3002 36.4C40.7002 36.3 41.2002 36.3 41.5002 36C41.6002 36 41.6002 36.1 41.7002 36.1C41.7002 36.1 42.7002 36.7 44.0002 37.5C43.3002 37.6 42.6002 37.6 41.8002 37.6C41.6002 37.6 41.4002 37.5 41.2002 37.4C40.2002 37.1 39.1002 37.2 38.2002 37.5C36.4002 38 34.7002 38.8 33.2002 39.8C31.1002 41.2 29.7002 43.1 28.5002 45.3C27.7002 46.7 27.2002 48.3 27.3002 49.9C27.3002 49.9 27.3002 49.9 27.3002 50C27.9002 48.6 29.4002 47.7 30.6002 46.9C32.4002 45.7 34.4002 44.9 36.2002 43.6C37.8002 42.5 39.2002 41.2 40.6002 39.9C41.0002 39.5 41.5002 39 41.9002 38.6C42.1002 38.3 42.4002 38.3 42.7002 38.2C43.4002 38.1 44.1002 38.1 44.8002 38C47.3002 39.6 50.3002 41.6 50.4002 42C50.0002 42.4 49.4002 42.7 48.9002 43C48.6002 43.2 48.2002 43.4 47.9002 43.6C47.6002 43.7 47.3002 43.7 47.0002 43.7C45.4002 43.9 43.6002 44.4 42.2002 45.1C40.8002 45.8 39.5002 46.8 38.3002 47.8C37.7002 48.4 37.0002 48.9 36.4002 49.4C35.8002 49.9 35.0002 50.4 34.5002 51C36.0002 51.1 37.5002 50.6 38.9002 50.3C40.6002 49.9 42.2002 49.5 43.6002 48.5C45.0002 47.5 46.3002 46.2 47.4002 45C47.9002 44.5 48.3002 43.9 48.9002 43.5C49.6002 43.1 50.3002 42.8 50.9002 42.5C51.6002 42.5 52.2002 42.6 52.9002 42.7C53.5002 42.8 54.1002 43 54.7002 43.2C55.7002 43.5 56.7002 43.7 57.6002 44.1C58.9002 44.6 60.2002 45 61.4002 45.8C62.9002 46.7 64.3002 47.7 65.7002 48.6L62.4002 48.8C62.2002 48.8 62.0002 48.6 61.8002 48.5C61.5002 48.4 61.1002 48.2 60.8002 48.1C60.1002 47.8 59.4002 47.6 58.7002 47.3C57.3002 46.9 55.9002 46.7 54.4002 46.8C52.9002 46.9 51.4002 47.2 50.0002 47.4C49.3002 47.5 48.5002 47.7 47.8002 47.8C47.7002 47.8 47.0002 47.9 47.0002 48C47.0002 48.1 47.2002 48.1 47.3002 48.2C48.1002 48.5 49.0002 48.7 49.9002 48.9C50.9002 49.1 51.8002 49.3 52.8002 49.5C54.7002 49.9 56.7002 50.3 58.6002 50.2C59.5002 50.1 60.5002 50 61.4002 49.7C62.0002 49.5 62.6002 49.3 63.3002 49.2C64.0002 49.1 64.6002 49.1 65.3002 49.2C65.8002 49.2 66.3002 49.3 66.8002 49.3C67.9002 50.1 69.0002 50.9 69.9002 51.9C70.6002 52.7 71.4002 53.4 72.2002 54C73.1002 54.6 74.0002 55.2 74.9002 55.7C75.5002 56 76.1002 56.4 76.7002 56.6C77.8002 57.2 80.6002 55 79.1002 54.1C78.0002 53.8 76.9002 53.3 75.8002 52.8C74.8002 52.3 73.9002 51.7 73.1002 51C72.3002 50.3 71.6002 49.4 70.7002 48.7C70.4002 47.9 70.1002 47.1 69.9002 46.4C69.7002 45.9 69.3002 45.2 69.6002 44.7C70.0002 44.1 70.5002 43.5 71.1002 43.1C71.7002 42.6 72.6002 41.9 73.4002 41.9C73.9002 41.9 74.4002 42.2 74.8002 42.5C75.3002 42.8 75.8002 43.2 76.3002 43.5C77.4002 44.1 78.8002 44.5 80.0002 44.6C81.2002 44.7 82.4002 44.5 83.5002 44.1C84.1002 43.9 84.6002 43.7 85.1002 43.4C85.4002 43.2 86.1002 42.9 86.3002 42.5C86.2002 42.4 85.8002 42.4 85.5002 42.4C85.8002 42.4 85.1002 42.4 85.5002 42.4ZM71.3002 32.4C71.3002 31.5 71.3002 30.4 71.3002 30.4H71.4002C71.4002 30.4 71.6002 30.4 71.8002 30.5C71.7002 31.4 72.6002 32.3 73.9002 32.8C72.6002 33 70.9002 33.9 71.0002 35.4H70.5002C70.7002 35.4 70.7002 34 71.3002 32.4C71.3002 31.5 70.7002 34 71.3002 32.4Z" fill="white"/>
<path d="M31.2004 26.1C33.2004 27.9 34.3004 29.4 34.5004 29.7C34.6004 28.5 33.8004 27.2 33.3004 26.1C32.2004 24.1 31.0004 22.2 29.3004 20.7C28.1004 19.5 26.6004 18.6 25.3004 17.6C24.7004 17.2 24.2004 16.7 23.6004 16.3C23.1004 15.9 22.5004 15.4 21.9004 15.1C21.9004 15.1 24.1004 20.2 25.1004 21.9C27.7004 23.2 29.8004 24.8 31.2004 26.1C33.2004 27.8 29.8004 24.8 31.2004 26.1Z" fill="white"/>
<path d="M37.4998 106.7H13.2998V108.4H37.4998V106.7Z" fill="#2A3582"/>
<path d="M85.8997 106.7H61.6997V108.4H85.8997V106.7Z" fill="#E80000"/>
<path d="M61.7 106.7H37.5V108.4H61.7V106.7Z" fill="white"/>
</svg>
