<?xml version="1.0" encoding="utf-8"?>
<!-- Generator: Adobe Illustrator 19.1.0, SVG Export Plug-In . SVG Version: 6.00 Build 0)  -->
<svg version="1.1" id="CARRÉ" xmlns="http://www.w3.org/2000/svg" xmlns:xlink="http://www.w3.org/1999/xlink" x="0px" y="0px"
	 viewBox="0 0 112.4 135.6" enable-background="new 0 0 112.4 135.6" xml:space="preserve">
<g>
	<rect x="6.6" y="6.6" fill="#007C86" width="99.2" height="99.2"/>
	<path fill="#FFFFFF" d="M57.9,93.2c3.8,0,6.8-0.9,9.1-2.7c2.3-1.8,3.4-4.6,3.4-8.5c0-2.4-0.4-4.5-1.3-6.2c-0.9-1.7-2.1-3-3.6-3.9
		c-1.5-0.9-3.3-1.3-5.4-1.3c-2.3,0-4.4,0.7-6.2,2.1l-0.6-1.6h-5v28.3H55v-6.3C55.9,93.1,56.9,93.2,57.9,93.2z M55,76.4
		c0.7-0.4,1.3-0.7,2-0.9c0.7-0.2,1.5-0.3,2.3-0.3c2.9,0,4.3,2.2,4.3,6.5c0,2.2-0.5,3.9-1.5,5c-1,1.1-2.6,1.6-4.7,1.6
		c-0.8,0-1.6-0.1-2.5-0.3V76.4z"/>
	<path fill="#FFFFFF" d="M40.3,70.9v21.8h-5l-0.7-1.8c-2.5,1.5-4.9,2.3-7.3,2.3c-2.8,0-4.8-0.8-5.9-2.3s-1.6-3.7-1.6-6.5V70.9h6.7
		v12.6c0,1.8,0.2,3,0.6,3.7c0.4,0.7,1.2,1,2.4,1c1.3,0,2.6-0.4,4-1.3V70.9H40.3z"/>
	<path fill="#FFFFFF" d="M90.6,76.9c-1.3,0-2.5,0.1-3.6,0.2c-1.1,0.2-2.3,0.5-3.6,0.9v14.7h-6.7V70.9h5l1,2.6
		c1.3-1.1,2.6-1.8,3.9-2.3c1.3-0.5,2.6-0.7,4-0.7V76.9z"/>
	<g>
		<g>
			<path d="M7.1,126.2c-0.3-0.3-0.5-0.7-0.5-1.2v-2.4h1.1v2.4c0,0.3,0.1,0.6,0.2,0.7c0.1,0.1,0.3,0.2,0.6,0.2c0.3,0,0.5-0.1,0.6-0.2
				c0.1-0.1,0.2-0.4,0.2-0.7v-2.4h1.1v2.4c0,0.5-0.2,0.9-0.5,1.2c-0.3,0.3-0.8,0.4-1.4,0.4C7.9,126.6,7.4,126.5,7.1,126.2z"/>
			<path d="M15.1,122.6v4l-0.9,0l-1.8-2.5l0.1,1.3v1.2h-1.1v-4h0.9l1.8,2.5l-0.1-1.3v-1.2H15.1z"/>
			<path d="M16.1,122.6h1.1v4h-1.1V122.6z"/>
			<path d="M18.9,126.3c-0.3-0.2-0.6-0.4-0.7-0.7c-0.2-0.3-0.2-0.7-0.2-1c0-0.4,0.1-0.7,0.2-1c0.2-0.3,0.4-0.6,0.7-0.7
				c0.3-0.2,0.7-0.3,1.2-0.3c0.5,0,0.8,0.1,1.2,0.3c0.3,0.2,0.6,0.4,0.7,0.7s0.2,0.7,0.2,1c0,0.4-0.1,0.7-0.2,1
				c-0.2,0.3-0.4,0.6-0.7,0.7c-0.3,0.2-0.7,0.3-1.2,0.3C19.6,126.6,19.3,126.5,18.9,126.3z M20.7,125.7c0.2-0.1,0.3-0.3,0.4-0.5
				c0.1-0.2,0.1-0.4,0.1-0.7c0-0.4-0.1-0.7-0.3-0.9c-0.2-0.2-0.5-0.4-0.8-0.4s-0.6,0.1-0.8,0.4c-0.2,0.2-0.3,0.6-0.3,0.9
				c0,0.2,0,0.5,0.1,0.7c0.1,0.2,0.2,0.4,0.4,0.5s0.4,0.2,0.6,0.2S20.5,125.8,20.7,125.7z"/>
			<path d="M26.8,122.6v4l-0.9,0l-1.8-2.5l0.1,1.3v1.2H23v-4H24l1.8,2.5l-0.1-1.3v-1.2H26.8z"/>
		</g>
		<g>
			<path d="M32.6,122.9c0.2,0.2,0.4,0.5,0.4,0.9c0,0.4-0.1,0.7-0.4,0.9c-0.2,0.2-0.6,0.3-1.1,0.3h-0.8v1.6h-0.5v-4h1.4
				C32,122.6,32.3,122.7,32.6,122.9z M32.4,123.7c0-0.2-0.1-0.4-0.2-0.6c-0.2-0.1-0.4-0.2-0.7-0.2h-0.8v1.5h0.8
				C32.1,124.5,32.4,124.2,32.4,123.7z"/>
			<path d="M34.3,126.3c-0.3-0.2-0.5-0.4-0.7-0.8c-0.1-0.3-0.2-0.7-0.2-1c0-0.4,0.1-0.7,0.2-1c0.1-0.3,0.4-0.6,0.7-0.7
				c0.3-0.2,0.6-0.3,1.1-0.3c0.4,0,0.8,0.1,1.1,0.3c0.3,0.2,0.5,0.4,0.7,0.7c0.1,0.3,0.2,0.7,0.2,1c0,0.4-0.1,0.7-0.2,1.1
				c-0.1,0.3-0.4,0.6-0.7,0.8s-0.6,0.3-1.1,0.3C35,126.6,34.6,126.5,34.3,126.3z M36.2,126c0.2-0.1,0.4-0.3,0.5-0.6
				c0.1-0.3,0.2-0.5,0.2-0.9c0-0.3-0.1-0.6-0.2-0.8c-0.1-0.2-0.3-0.4-0.5-0.6c-0.2-0.1-0.5-0.2-0.8-0.2c-0.3,0-0.6,0.1-0.8,0.2
				c-0.2,0.1-0.4,0.3-0.5,0.6c-0.1,0.2-0.2,0.5-0.2,0.8c0,0.3,0.1,0.6,0.2,0.9c0.1,0.3,0.3,0.4,0.5,0.6s0.5,0.2,0.8,0.2
				C35.7,126.2,36,126.1,36.2,126z"/>
			<path d="M40.7,122.9c0.2,0.2,0.4,0.5,0.4,0.9c0,0.4-0.1,0.7-0.4,0.9c-0.2,0.2-0.6,0.3-1.1,0.3h-0.8v1.6h-0.5v-4h1.4
				C40.1,122.6,40.5,122.7,40.7,122.9z M40.6,123.7c0-0.2-0.1-0.4-0.2-0.6c-0.2-0.1-0.4-0.2-0.7-0.2h-0.8v1.5h0.8
				C40.3,124.5,40.6,124.2,40.6,123.7z"/>
			<path d="M42.3,126.2c-0.3-0.3-0.4-0.7-0.4-1.1v-2.5h0.5v2.5c0,0.4,0.1,0.7,0.3,0.9s0.5,0.3,0.8,0.3s0.6-0.1,0.8-0.3
				c0.2-0.2,0.3-0.5,0.3-0.9v-2.5h0.5v2.5c0,0.5-0.1,0.9-0.4,1.2c-0.3,0.3-0.7,0.4-1.2,0.4C43,126.6,42.6,126.5,42.3,126.2z"/>
			<path d="M48.8,126.1v0.4h-2.4v-4h0.5v3.6H48.8z"/>
			<path d="M51.6,125.3H50l-0.5,1.2h-0.5l1.5-4h0.5l1.5,4h-0.5L51.6,125.3z M51.5,124.9l-0.6-1.8l-0.6,1.8H51.5z"/>
			<path d="M53.4,122.6h0.5v4h-0.5V122.6z"/>
			<path d="M56.5,124.8h-0.7v1.7h-0.5v-4h1.3c0.5,0,0.8,0.1,1,0.3c0.2,0.2,0.4,0.5,0.4,0.8c0,0.3-0.1,0.5-0.2,0.7
				c-0.2,0.2-0.4,0.3-0.7,0.4l1.3,1.8h-0.6L56.5,124.8z M55.8,124.4h0.8c0.6,0,0.8-0.2,0.8-0.7c0-0.2-0.1-0.4-0.2-0.5
				c-0.1-0.1-0.4-0.2-0.6-0.2h-0.8V124.4z"/>
			<path d="M61.7,126.1v0.4h-2.4v-4h2.3v0.4h-1.8v1.3h1.5v0.4h-1.5v1.5H61.7z"/>
		</g>
		<g>
			<path d="M66,124.8h-0.7v1.7h-0.5v-4h1.3c0.5,0,0.8,0.1,1,0.3c0.2,0.2,0.4,0.5,0.4,0.8c0,0.3-0.1,0.5-0.2,0.7
				c-0.2,0.2-0.4,0.3-0.7,0.4l1.3,1.8h-0.6L66,124.8z M65.3,124.4h0.8c0.6,0,0.8-0.2,0.8-0.7c0-0.2-0.1-0.4-0.2-0.5
				c-0.1-0.1-0.4-0.2-0.6-0.2h-0.8V124.4z"/>
			<path d="M71.1,126.1v0.4h-2.4v-4H71v0.4h-1.8v1.3h1.5v0.4h-1.5v1.5H71.1z M70.4,121.3h0.5l-0.8,0.9h-0.4L70.4,121.3z"/>
			<path d="M74.5,122.9c0.2,0.2,0.4,0.5,0.4,0.9c0,0.4-0.1,0.7-0.4,0.9c-0.2,0.2-0.6,0.3-1.1,0.3h-0.8v1.6h-0.5v-4h1.4
				C73.9,122.6,74.3,122.7,74.5,122.9z M74.4,123.7c0-0.2-0.1-0.4-0.2-0.6c-0.2-0.1-0.4-0.2-0.7-0.2h-0.8v1.5h0.8
				C74.1,124.5,74.4,124.2,74.4,123.7z"/>
			<path d="M76.1,126.2c-0.3-0.3-0.4-0.7-0.4-1.1v-2.5h0.5v2.5c0,0.4,0.1,0.7,0.3,0.9c0.2,0.2,0.5,0.3,0.8,0.3
				c0.3,0,0.6-0.1,0.8-0.3c0.2-0.2,0.3-0.5,0.3-0.9v-2.5h0.5v2.5c0,0.5-0.1,0.9-0.4,1.2c-0.3,0.3-0.7,0.4-1.2,0.4
				C76.8,126.6,76.4,126.5,76.1,126.2z"/>
			<path d="M82.7,124.8c0.1,0.2,0.2,0.4,0.2,0.6c0,0.3-0.1,0.6-0.4,0.8c-0.2,0.2-0.6,0.3-1.1,0.3h-1.3v-4h1.3c0.4,0,0.7,0.1,0.9,0.3
				c0.2,0.2,0.3,0.4,0.3,0.7c0,0.2-0.1,0.4-0.2,0.5c-0.1,0.2-0.3,0.3-0.5,0.3C82.3,124.5,82.5,124.6,82.7,124.8z M80.7,123v1.3h0.8
				c0.2,0,0.4-0.1,0.5-0.2s0.2-0.3,0.2-0.5c0-0.2-0.1-0.4-0.2-0.5c-0.1-0.1-0.3-0.2-0.5-0.2H80.7z M82.1,125.9
				c0.2-0.1,0.2-0.3,0.2-0.5c0-0.2-0.1-0.4-0.2-0.6c-0.2-0.1-0.4-0.2-0.7-0.2h-0.8v1.5h0.8C81.8,126.1,82,126.1,82.1,125.9z"/>
			<path d="M86.3,126.1v0.4h-2.4v-4h0.5v3.6H86.3z"/>
			<path d="M87.1,122.6h0.5v4h-0.5V122.6z"/>
			<path d="M89.5,126.3c-0.3-0.2-0.5-0.4-0.7-0.8c-0.2-0.3-0.2-0.7-0.2-1s0.1-0.7,0.2-1c0.2-0.3,0.4-0.6,0.7-0.7
				c0.3-0.2,0.7-0.3,1.1-0.3c0.3,0,0.5,0,0.7,0.1c0.2,0.1,0.4,0.2,0.6,0.4l-0.2,0.4c-0.1-0.1-0.3-0.2-0.5-0.3
				c-0.2-0.1-0.4-0.1-0.6-0.1c-0.3,0-0.6,0.1-0.8,0.2c-0.2,0.1-0.4,0.3-0.5,0.6c-0.1,0.2-0.2,0.5-0.2,0.8c0,0.3,0.1,0.6,0.2,0.9
				c0.1,0.2,0.3,0.4,0.5,0.6c0.2,0.1,0.5,0.2,0.8,0.2c0.5,0,0.9-0.2,1.2-0.5l0.2,0.4c-0.2,0.2-0.4,0.3-0.6,0.4
				c-0.2,0.1-0.5,0.2-0.8,0.2C90.2,126.6,89.8,126.5,89.5,126.3z"/>
			<path d="M95,125.3h-1.6l-0.5,1.2h-0.5l1.5-4h0.5l1.5,4h-0.5L95,125.3z M94.9,124.9l-0.6-1.8l-0.6,1.8H94.9z"/>
			<path d="M96.8,122.6h0.5v4h-0.5V122.6z"/>
			<path d="M101.9,122.6v4l-0.5,0l-2.2-3.1l0,1.4v1.7h-0.5v-4h0.5l2.2,3.1l0-1.5v-1.6H101.9z"/>
			<path d="M105.6,126.1v0.4h-2.4v-4h2.3v0.4h-1.8v1.3h1.5v0.4h-1.5v1.5H105.6z"/>
		</g>
	</g>
	<g id="XMLID_1_">
		<path id="XMLID_10_" fill="#FFFFFF" d="M65.1,32.6c0.1-2.4,0.8-4.7,1.6-7c0.4-1.3,0.8-2.6,1.4-3.8l-0.8-2.5c0,0-3.4,7.6-2.2,13.6
			C65.1,32.9,65.1,32.7,65.1,32.6C65.4,28.4,65.1,32.7,65.1,32.6z"/>
		<path id="XMLID_9_" fill="#FFFFFF" d="M46.3,31.6c0.2,0.1,1.2,1.9,1.8,2.7c0.2-0.6,0.4-1.3,0.6-2C47.8,31.8,46.1,31.5,46.3,31.6
			C46.5,31.6,46.1,31.5,46.3,31.6z"/>
		<path id="XMLID_8_" fill="#FFFFFF" d="M71.9,31.3c0.3,0.5,0.5,1,0.7,1.4l0.2,0.3c0.2,0.4,0.5,0.8,0.7,1.2c0.9-1.1,1.7-2.2,2.5-3.3
			c0.7-1,1.5-2.1,2.1-3.2c0.4-0.8,0.7-1.6,1.1-2.4c0.2-0.6,0.6-1.2,0.7-1.8c-1.2,0.8-2.2,1.8-3.4,2.6c-1.7,1.3-3.5,2.5-5,4.1
			C71.7,30.8,71.9,31.2,71.9,31.3C72.1,31.5,71.9,31.2,71.9,31.3z"/>
		<path id="XMLID_7_" fill="#FFFFFF" d="M25.2,41.4c0,0,0.1,0,0.2,0.1c0.9-0.6,1.9-1.2,3.7-2c-1.4-0.4-2.9-0.7-4.4-0.6
			c-1.4,0-2.8,0.4-4,1.1c0.7,0.1,1.3,0.3,1.9,0.4C23.6,40.6,24.4,41,25.2,41.4C25.3,41.4,24.7,41.2,25.2,41.4z"/>
		<path id="XMLID_6_" fill="#FFFFFF" d="M41.5,34.3c0.1,0.2,0.4,0.5,0.6,0.7c-0.5-1.7-0.9-3.5-1.1-5.3c-0.2-2-0.1-3.9,0.1-5.9
			c-0.3-0.6-0.6-1.3-0.9-1.9c-0.1-0.1-0.6-1.1-0.5-1.2c-0.1,0.1,0,0.4,0,0.5c0,0.4-0.1,0.9-0.1,1.3c-0.1,1.3-0.1,2.5-0.2,3.8
			c0,1.1-0.1,2.2,0.1,3.2C39.9,31.3,40.7,32.9,41.5,34.3C41.6,34.5,40.9,33.2,41.5,34.3z"/>
		<path id="XMLID_3_" fill="#FFFFFF" d="M92.1,49c-1.1,0-2.2,0.1-3.3-0.2c-1.1-0.3-2.1-0.7-3.1-1.2c-0.7-0.4-1.4-1-2.2-1.1
			c-0.6-0.1-1.1,0.1-1.6,0.3c-1.3,0.5-2.4,1.3-3.5,2.1c-0.5,0.3-0.9,0.7-1.3,1c-0.2,0.2-0.4,0.4-0.7,0.5c0.1-0.4,0.2-0.8,0.3-1.2
			c0.2-0.9,0.3-1.8,0.5-2.7c0.1-0.6,0.1-1.2,0.1-1.8c0-0.6-0.1-1.4,0-2l0.5,0c0,0,0,0,0.1,0c0.7,2.1,3.8,2.2,5.5,1.4
			c0.8-0.4,1.6-1.1,1.6-2.1c0-1.1-1.1-1.8-2-2.2c0.8-0.1,1.9-0.4,2.3-1.3c0.3-0.8-0.2-1.7-0.9-2.2c-0.9-0.7-2-1-3.1-0.9
			c-0.9,0.1-2.1,0.4-2.5,1.3c-0.1,0-0.8,0-0.9,0c0-0.6-0.1-1.2-0.2-1.8c0-0.2-0.1-0.7-0.3-0.8c-0.5-0.3-0.3,0.6-0.3,0.8
			c0.1,0.2,0.1,0.5,0.1,0.8c0.1,0.5,0.1,1,0.1,1.5c0.1,0.8,0.1,1.6,0,2.4c-0.1,0.7-0.3,1.4-0.5,2c-0.2,1.2-0.2,2.4-0.2,3.6
			c0,1.4-0.3,2.7-0.5,4c-0.1,0.3-0.1,0.6-0.2,0.9c0,0.1-0.1,0.2-0.2,0.1c-0.3-0.8-0.4-1.6-0.6-2.4c0-0.5,0-0.9,0-0.9
			c0,0,0-0.1,0-0.1l0,0c0.5-3.2,0.6-6.7-0.8-9.7c-0.8-1.7-1.8-3.3-2.7-4.9c-0.4-0.7-0.7-1.5-1.1-2.2c0.1,1.4,0,2.8,0.1,4.3
			c0,1.8,0,3.6,0.3,5.3c0.3,1.7,0.9,3.2,1.6,4.7c0.3,0.7,0.6,1.4,1,2c0.2,0.3,0.4,0.5,0.6,0.7c0.2,0.3,0.3,0.6,0.4,0.9
			c0,0.1,0,0.1,0,0.2c0.5,2.3,0.9,4.6,1.6,6.8c-3.1-1.9-7.2-3.5-8.4-4.5c0,0,0,0,0,0c0-2.1-0.5-4.3-1.1-6.3
			c-0.2-0.6-0.3-1.2-0.6-1.7c-0.1-0.3-0.6-1.1-0.3-1.4c0.4-0.3,1.4,0.7,1.5,1c0,0,0,0,0,0c-0.7,1.2,0,3.1,0.8,4.1
			c0.7,0.8,2.2,1.9,3.3,1c1-0.9,0.5-2.9,0-3.9c-0.6-1.2-1.9-2.2-3.3-1.7c-0.3-0.2-0.6-0.4-0.9-0.6c-0.2-0.1-0.6-0.2-0.7-0.4
			c0,0,0,0,0,0c0,0,0,0,0-0.1c0-0.1,0.1-0.1,0.1-0.2c0.3-0.4,0.6-0.7,0.9-1.1c0.4-0.3,0.7-0.7,1.2-1c0.5-0.3,1.1-0.6,1.5-1
			c0-1.6-0.1-3.3-0.1-4.9c-0.9,1.6-1.4,3.4-2,5.1c-0.4,0.5-0.6,1-1,1.5c-0.2,0.2-0.4,0.5-0.6,0.7c-0.1,0.2-0.4,0.3-0.5,0.5
			c-0.2-1.2,0.3-2.4,0.8-3.5l0,0c0.7-1.7,2-3.1,2.7-4.9c0.7-1.6,0.7-3.4,0.8-5.1c0.1-1.8,0.1-3.6,0.2-5.3c0-0.5,0-1,0-1.6
			c0-0.3-0.1-0.3-0.3,0c-1.7,2.3-2.7,5.4-3.5,8.2c-0.6,2.1-1,4.2-1.1,6.4c-0.1,1.4-0.1,2.7-0.1,4.1c0,0.5,0,1.1-0.1,1.6
			c-0.1,0.3-0.5-0.5-0.6-0.5c-0.5-0.8-0.8-1.8-1.2-2.6l0,0c-0.6-1.4-1.2-2.8-2-4.1c-0.9-1.4-2.1-2.7-3.4-3.7
			c-1.6-1.3-3.5-2.2-5.2-3.4c0.3,0.3,0.4,0.8,0.6,1.2c0.3,0.6,0.5,1.2,0.8,1.9c0.2,0.4,0.3,0.8,0.6,1.2c0.1,0.2,0.3,0.4,0.5,0.5
			c0.4,0.5,0.8,1.1,1.2,1.6c0.9,1.2,1.7,2.7,3,3.6c0.6,0.5,1.4,0.8,2,1.2c0.6,0.4,1.1,0.8,1.6,1.3c0.4,0.6,0.8,1.2,1.1,1.8
			c0.4,0.6-0.1,1-0.6,1.3c-1.2-0.8-2.6,0.4-3.2,1.3c-0.8,1.1-1.5,3.2-0.4,4.3c1,0.9,2.5,0.1,3.3-0.7c1.1-1.1,1.7-3.2,0.7-4.5
			c0.3-0.3,0.6-0.4,0.8,0c0.1,0.3,0.3,0.7,0.4,1c0.1,0.5,0.3,1,0.4,1.5c0.2,1,0.3,2,0.4,3c0,0.5,0,1-0.2,1.4
			c-0.2,0.4-0.9,0.4-1.2,0.4c-1.4-0.4-3.1-0.9-4.9-1.5c-0.4-0.6-0.8-1.3-1-1.9c-0.1-1.6,0.4-3.1,0.4-4.7c0.1-1.7,0.1-3.6-0.3-5.3
			c-0.7-0.7-1.3-1.5-1.9-2.3c-0.6-0.9-1.2-1.7-1.9-2.5c0,1.3,0.1,2.7,0.1,4c0,1,0,2.1,0.2,3.1c0.6,0.9,1.2,1.8,1.6,2.8
			c0.4,0.9,0.8,2,0.7,3c0.1,0.3,0.1,0.4,0.1,0.4l0,0c0.2,1.1,0.7,2,1.2,2.9c0,0,0,0.1,0,0.1c-0.3-0.1-0.5-0.2-0.8-0.3
			c-0.3-0.4-0.5-1.1-0.7-1.6l0,0c-0.1-0.3-0.2-0.5-0.3-0.8c-0.1-0.4,0-0.8,0-1.2c0-1-0.4-2-0.8-2.8c-0.8-1.8-2-3.4-3.4-4.7l0,0
			c-0.1-0.1-0.2-0.2-0.3-0.3c-0.4,1.4-0.9,2.6-1.9,3.6c0.4,0.8,1,1.5,1.4,2.3c0.4,0.7,0.9,1.4,1.6,1.9c0.7,0.5,1.6,0.5,2.3,1
			c0.3,0.2,0.6,0.5,0.7,0.9c0.2,0.5,0.4,0.9,0.6,1.4c-1.7-0.7-3.2-1.6-4.8-2.5c-1.5-0.8-3-1.7-4.5-2.5l0.5-1.6c0,0,0,0,0,0l0,0
			c1.5-0.8,2.6-2,3.1-3.6c0.9-2.5,1-5.1,1-7.7c-2.3,0.6-3.4,3.5-4,5.5c-0.3,1.2-0.6,2.4-0.6,3.6c0,1,0.2,2-0.2,3
			c-0.2-0.7-1.3-0.6-1.4,0.1c-1-0.6-1.9-1.1-2.8-1.6c0-0.3,0-0.8,0-0.8s0-0.7-0.1-1.8l0,0c0,0,0,0,0-0.1c0.5-0.9,2.9-6.2-1.5-16.9
			c-0.4,2.4-0.7,4.8-0.8,7.2C41.3,29.7,42,33,43,36c0,0,0.1,0.3,0.2,0.5c0,0,0.1,2,0.1,2c-0.7-0.4-1.3-0.8-1.9-1.2
			c0,0-0.2-0.1-0.5-0.4c0,0,0,0,0,0l0,0c-0.1-0.1-0.2-0.2-0.3-0.4c-1.3-1.9-3.1-3.5-4.9-4.9c-1.8-1.4-3.8-2.6-5.9-3.5
			c-2.3-1-4.7-1.4-7.2-1.8c-0.2,0-0.4,0-0.5-0.1c0.1,0.7,0.8,1.3,1.2,1.8c0.6,0.7,1.3,1.3,1.9,2c1.3,1.3,2.7,2.6,4.3,3.4
			c1.6,0.8,3.4,1.4,5.1,1.9c1.5,0.5,3.1,1,4.7,1.2c0.1,0,0.1,0,0.2,0c0.1,0,0.1,0,0.2,0.1c0.4,0.3,0.7,0.5,0.9,0.7c0,0,0,0,0,0
			c0.5,0.4,1.4,1.1,2.5,1.9c-0.2,0-0.5,0-0.7-0.1l-0.1,0C39,38,35,37.6,31.6,39c-1.4,0.5-2.8,1.2-4.1,1.8c-0.9,0.5-1.7,1-2.5,1.6
			c-0.9,0.7-1.8,1.5-2.6,2.3c-0.6,0.6-1.2,1.2-1.7,1.9c-0.5,0.6-1.1,1.4-1.4,2.2c2-0.7,3.9-1.4,5.8-2.2c1.3-0.5,2.5-1,3.8-1.5
			c0.6-0.3,1.1-0.6,1.6-0.9c1.4-0.7,2.8-1.4,4.1-2.2c0.7-0.4,1.4-0.8,2-1.2c0.4-0.3,0.9-0.5,1.2-0.9c0.3-0.2,0.6-0.4,0.9-0.5
			c0,0,0,0,0,0c1.1-0.3,2.4,0.1,3.3,0.3c0,0,0,0,0,0c0,0,0.2,0,0.5,0.1l0,0c0,0,0,0,0,0c0.6,0.1,1.5,0.4,1.9,0.5
			c0.4,0.3,0.8,0.5,1.2,0.8c-0.8-0.3-2,0.6-1,1.3c0.7,0.5,2.2-0.2,1.4-1.1c0.4,0.3,0.9,0.6,1.2,0.8c-0.3,0.1-0.7,0.3-1,0.4
			c-0.4,0.1-0.8,0.2-1.2,0.2c-0.8,0-1.6-0.2-2.3-0.4c-1.7-0.4-3.4-0.9-5.1-1.5c-2,1.5-4.4,2.5-6.5,3.7c2.9,0.8,5.9,1,8.8,0.6
			c2-0.3,3.8-1.1,5.6-1.8c0.5-0.1,0.9-0.2,1.4-0.3c0.4-0.1,0.9-0.1,1.2-0.4c0.1,0,0.1,0.1,0.2,0.1c0,0,1,0.6,2.3,1.4
			c-0.7,0.1-1.4,0.1-2.2,0.1c-0.2,0-0.4-0.1-0.6-0.2c-1-0.3-2.1-0.2-3,0.1c-1.8,0.5-3.5,1.3-5,2.3c-2.1,1.4-3.5,3.3-4.7,5.5
			c-0.8,1.4-1.3,3-1.2,4.6c0,0,0,0,0,0.1c0.6-1.4,2.1-2.3,3.3-3.1c1.8-1.2,3.8-2,5.6-3.3c1.6-1.1,3-2.4,4.4-3.7
			c0.4-0.4,0.9-0.9,1.3-1.3c0.2-0.3,0.5-0.3,0.8-0.4c0.7-0.1,1.4-0.1,2.1-0.2c2.5,1.6,5.5,3.6,5.6,4c-0.4,0.4-1,0.7-1.5,1
			c-0.3,0.2-0.7,0.4-1,0.6c-0.3,0.1-0.6,0.1-0.9,0.1c-1.6,0.2-3.4,0.7-4.8,1.4c-1.4,0.7-2.7,1.7-3.9,2.7c-0.6,0.6-1.3,1.1-1.9,1.6
			c-0.6,0.5-1.4,1-1.9,1.6c1.5,0.1,3-0.4,4.4-0.7c1.7-0.4,3.3-0.8,4.7-1.8c1.4-1,2.7-2.3,3.8-3.5c0.5-0.5,0.9-1.1,1.5-1.5
			c0.7-0.4,1.4-0.7,2-1c0.7,0,1.3,0.1,2,0.2c0.6,0.1,1.2,0.3,1.8,0.5c1,0.3,2,0.5,2.9,0.9c1.3,0.5,2.6,0.9,3.8,1.7
			c1.5,0.9,2.9,1.9,4.3,2.8l-3.3,0.2c-0.2,0-0.4-0.2-0.6-0.3c-0.3-0.1-0.7-0.3-1-0.4c-0.7-0.3-1.4-0.5-2.1-0.8
			c-1.4-0.4-2.8-0.6-4.3-0.5c-1.5,0.1-3,0.4-4.4,0.6c-0.7,0.1-1.5,0.3-2.2,0.4c-0.1,0-0.8,0.1-0.8,0.2c0,0.1,0.2,0.1,0.3,0.2
			c0.8,0.3,1.7,0.5,2.6,0.7c1,0.2,1.9,0.4,2.9,0.6c1.9,0.4,3.9,0.8,5.8,0.7c0.9-0.1,1.9-0.2,2.8-0.5c0.6-0.2,1.2-0.4,1.9-0.5
			c0.7-0.1,1.3-0.1,2,0c0.5,0,1,0.1,1.5,0.1c1.1,0.8,2.2,1.6,3.1,2.6c0.7,0.8,1.5,1.5,2.3,2.1c0.9,0.6,1.8,1.2,2.7,1.7
			c0.6,0.3,1.2,0.7,1.8,0.9c1.1,0.6,3.9-1.6,2.4-2.5c-1.1-0.3-2.2-0.8-3.3-1.3c-1-0.5-1.9-1.1-2.7-1.8c-0.8-0.7-1.5-1.6-2.4-2.3
			c-0.3-0.8-0.6-1.6-0.8-2.3c-0.2-0.5-0.6-1.2-0.3-1.7c0.4-0.6,0.9-1.2,1.5-1.6c0.6-0.5,1.5-1.2,2.3-1.2c0.5,0,1,0.3,1.4,0.6
			c0.5,0.3,1,0.7,1.5,1c1.1,0.6,2.5,1,3.7,1.1c1.2,0.1,2.4-0.1,3.5-0.5c0.6-0.2,1.1-0.4,1.6-0.7c0.3-0.2,1-0.5,1.2-0.9
			C92.8,49,92.4,49,92.1,49C91.7,49,92.4,49,92.1,49z M77.9,39c0-0.9,0-2,0-2l0.1,0c0,0,0.2,0,0.4,0.1c-0.1,0.9,0.8,1.8,2.1,2.3
			c-1.3,0.2-3,1.1-2.9,2.6l-0.5,0C77.3,42,77.3,40.6,77.9,39C77.9,38.1,77.3,40.6,77.9,39z"/>
		<path id="XMLID_2_" fill="#FFFFFF" d="M37.8,32.7c2,1.8,3.1,3.3,3.3,3.6c0.1-1.2-0.7-2.5-1.2-3.6c-1.1-2-2.3-3.9-4-5.4
			c-1.2-1.2-2.7-2.1-4-3.1c-0.6-0.4-1.1-0.9-1.7-1.3c-0.5-0.4-1.1-0.9-1.7-1.2c0,0,2.2,5.1,3.2,6.8C34.3,29.8,36.4,31.4,37.8,32.7
			C39.8,34.4,36.4,31.4,37.8,32.7z"/>
	</g>
	<g>
		<rect x="19.9" y="113.3" fill="#2A3582" width="24.2" height="1.7"/>
		<rect x="68.3" y="113.3" fill="#E80000" width="24.2" height="1.7"/>
		<rect x="44.1" y="113.3" fill="#FFFFFF" width="24.2" height="1.7"/>
	</g>
</g>
</svg>
