<svg width="196" height="116" viewBox="0 0 196 116" fill="none" xmlns="http://www.w3.org/2000/svg">
<path d="M121.967 35.0619C122.234 28.7349 124.098 22.6716 126.228 16.6083C127.293 13.1812 128.359 9.75406 129.956 6.59058L127.826 0C127.826 0 118.772 20.0354 121.967 35.8528C121.967 35.8528 121.967 35.3255 121.967 35.0619C122.766 23.9897 121.967 35.3255 121.967 35.0619Z" fill="white"/>
<path d="M71.902 32.4257C72.4347 32.6893 75.0977 37.4345 76.6955 39.5435C77.2281 37.9618 77.7607 36.1164 78.2934 34.2711C75.8966 32.9529 71.3694 32.1621 71.902 32.4257C72.4347 32.4257 71.3694 32.1621 71.902 32.4257Z" fill="white"/>
<path d="M140.076 31.6348C140.875 32.9529 141.408 34.271 141.94 35.3255L142.473 36.1164C143.006 37.1709 143.804 38.2254 144.337 39.2799C146.734 36.38 148.864 33.4802 150.995 30.5803C152.859 27.9441 154.989 25.0442 156.587 22.1444C157.652 20.0354 158.451 17.9264 159.516 15.8174C160.049 14.2357 161.114 12.6539 161.381 11.0722C158.185 13.1812 155.522 15.8174 152.326 17.9264C147.799 21.3535 143.006 24.517 139.011 28.7349C139.544 30.3167 140.076 31.3712 140.076 31.6348C140.609 32.162 140.076 31.3712 140.076 31.6348Z" fill="white"/>
<path d="M15.712 58.2608C15.712 58.2608 15.9783 58.2608 16.2446 58.5244C18.6413 56.9426 21.3044 55.3609 26.0978 53.2519C22.3696 52.1974 18.375 51.4066 14.3804 51.6702C10.6522 51.6702 6.92392 52.7247 3.72827 54.57C5.5924 54.8336 7.19023 55.3609 8.78805 55.6245C11.4511 56.1518 13.5815 57.2063 15.712 58.2608C15.9783 58.2608 14.3804 57.7335 15.712 58.2608Z" fill="white"/>
<path d="M59.1197 39.5435C59.386 40.0707 60.1849 40.8616 60.7175 41.3889C59.386 36.9073 58.3207 32.162 57.7881 27.4168C57.2555 22.1444 57.5218 17.1355 58.0544 11.8631C57.2555 10.2813 56.4566 8.43595 55.6577 6.85421C55.3914 6.59059 54.0599 3.95436 54.3262 3.69073C54.0599 3.95436 54.3262 4.74523 54.3262 5.00885C54.3262 6.06334 54.0599 7.38146 54.0599 8.43595C53.7936 11.8631 53.7936 15.0265 53.5273 18.4536C53.5273 21.3535 53.261 24.2533 53.7936 26.8896C54.8588 31.6348 56.9892 35.8528 59.1197 39.5435C59.386 40.0707 57.5218 36.6436 59.1197 39.5435Z" fill="white"/>
<path d="M193.87 78.2961C190.94 78.2961 188.011 78.5598 185.082 77.7689C182.152 76.978 179.489 75.9235 176.826 74.6054C174.962 73.5509 173.098 71.9692 170.967 71.7055C169.37 71.4419 168.038 71.9692 166.707 72.4964C163.245 73.8145 160.315 75.9235 157.386 78.0325C156.054 78.8234 154.989 79.8779 153.924 80.6687C153.391 81.196 152.859 81.7232 152.06 81.9869C152.326 80.9324 152.592 79.8779 152.859 78.8234C153.391 76.4508 153.658 74.0782 154.19 71.7055C154.457 70.1238 154.457 68.5421 154.457 66.9603C154.457 65.3786 154.19 63.2696 154.457 61.6879H155.788C155.788 61.6879 155.788 61.6879 156.054 61.6879C157.918 67.224 166.174 67.4876 170.701 65.3786C172.832 64.3241 174.962 62.4787 174.962 59.8425C174.962 56.9426 172.033 55.0973 169.636 54.0428C171.766 53.7792 174.696 52.9883 175.761 50.6157C176.56 48.5067 175.228 46.1341 173.364 44.816C170.967 42.9706 168.038 42.1797 165.109 42.4434C162.712 42.707 159.516 43.4979 158.451 45.8705C158.185 45.8705 156.321 45.8705 156.054 45.8705C156.054 44.2887 155.788 42.707 155.522 41.1252C155.522 40.598 155.255 39.2799 154.723 39.0163C153.391 38.2254 153.924 40.598 153.924 41.1252C154.19 41.6525 154.19 42.4434 154.19 43.2342C154.457 44.5523 154.457 45.8705 154.457 47.1886C154.723 49.2976 154.723 51.4065 154.457 53.5155C154.19 55.3609 153.658 57.2063 153.125 58.788C152.592 61.9515 152.592 65.115 152.592 68.2784C152.592 71.9692 151.793 75.3963 151.261 78.8234C150.995 79.6142 150.995 80.4051 150.728 81.196C150.728 81.4596 150.462 81.7232 150.196 81.4596C149.397 79.3506 149.13 77.2416 148.598 75.1326C148.598 73.8145 148.598 72.76 148.598 72.76V72.4964C149.929 64.0605 150.196 54.8337 146.467 46.925C144.337 42.4434 141.674 38.2254 139.277 34.0074C138.212 32.1621 137.413 30.0531 136.348 28.2077C136.614 31.8984 136.348 35.5892 136.614 39.5435C136.614 44.2887 136.614 49.0339 137.413 53.5155C138.212 57.9971 139.81 61.9515 141.674 65.9058C142.473 67.7512 143.272 69.5966 144.337 71.1783C144.87 71.9692 145.402 72.4964 145.935 73.0237C146.467 73.8145 146.734 74.6054 147 75.3963C147 75.6599 147 75.6599 147 75.9235C148.332 81.9869 149.397 88.0502 151.261 93.8499C143.005 88.8411 132.087 84.6231 128.891 81.9869C128.891 76.4508 127.56 70.651 125.962 65.3786C125.429 63.7968 125.163 62.2151 124.364 60.897C124.098 60.1061 122.766 57.9971 123.565 57.2063C124.63 56.4154 127.293 59.0516 127.56 59.8425C125.696 63.006 127.56 68.0148 129.69 70.651C131.554 72.76 135.549 75.6599 138.478 73.2873C141.141 70.9147 139.81 65.6422 138.478 63.006C136.88 59.8425 133.418 57.2063 129.69 58.5244C128.891 57.9971 128.092 57.4699 127.293 56.9426C126.761 56.679 125.696 56.4154 125.429 55.8881C125.429 55.8881 125.429 55.8882 125.429 55.6245C125.429 55.3609 125.696 55.3609 125.696 55.0973C126.495 54.0428 127.293 53.2519 128.092 52.1974C129.158 51.4065 129.957 50.3521 131.288 49.5612C132.62 48.7703 134.217 47.9794 135.283 46.925C135.283 42.707 135.016 38.2254 135.016 34.0074C132.62 38.2254 131.288 42.9706 129.69 47.4522C128.625 48.7703 128.092 50.0884 127.027 51.4065C126.495 51.9338 125.962 52.7247 125.429 53.2519C125.163 53.7792 124.364 54.0428 124.098 54.57C123.565 51.4066 124.897 48.2431 126.228 45.3432C128.092 40.8616 131.554 37.1709 133.418 32.4257C135.283 28.2077 135.283 23.4625 135.549 18.9809C135.815 14.2357 135.815 9.49045 136.082 5.00885C136.082 3.69073 136.082 2.37262 136.082 0.790876C136.082 5.89896e-06 135.815 5.89896e-06 135.283 0.790876C130.755 6.85421 128.092 15.0265 125.962 22.408C124.364 27.9441 123.299 33.4802 123.033 39.2799C122.766 42.9706 122.766 46.3977 122.766 50.0884C122.766 51.4065 122.766 52.9883 122.5 54.3064C122.234 55.0973 121.168 52.9883 120.902 52.9883C119.571 50.8793 118.772 48.2431 117.707 46.1341C116.109 42.4434 114.511 38.7526 112.38 35.3255C109.984 31.6348 106.788 28.2077 103.326 25.5715C99.0652 22.1444 94.0054 19.7718 89.4783 16.6083C90.2772 17.3991 90.5435 18.7173 91.0761 19.7718C91.875 21.3535 92.4076 22.9352 93.2065 24.7806C93.7391 25.8351 94.0054 26.8896 94.8043 27.9441C95.0707 28.4713 95.6033 28.9986 96.1359 29.2622C97.2011 30.5803 98.2663 32.162 99.3315 33.4802C101.728 36.6436 103.859 40.598 107.321 42.9706C108.918 44.2887 111.049 45.0796 112.647 46.1341C114.245 47.1886 115.576 48.2431 116.908 49.5612C117.973 51.1429 119.038 52.7247 119.837 54.3064C120.902 55.8882 119.571 56.9426 118.239 57.7335C115.043 55.6245 111.315 58.788 109.717 61.1606C107.587 64.0605 105.723 69.5966 108.652 72.4964C111.315 74.869 115.31 72.76 117.44 70.651C120.37 67.7512 121.967 62.2151 119.304 58.788C120.103 57.9971 120.902 57.7335 121.435 58.788C121.701 59.5789 122.234 60.6334 122.5 61.4242C122.766 62.7423 123.299 64.0605 123.565 65.3786C124.098 68.0148 124.364 70.651 124.63 73.2873C124.63 74.6054 124.63 75.9235 124.098 76.978C123.565 78.0325 121.701 78.0325 120.902 78.0325C117.174 76.978 112.647 75.6599 107.853 74.0782C106.788 72.4964 105.723 70.6511 105.19 69.0693C104.924 64.8513 106.255 60.897 106.255 56.679C106.522 52.1974 106.522 47.1886 105.457 42.707C103.592 40.8616 101.995 38.7526 100.397 36.6436C98.7989 34.271 97.2011 32.1621 95.3369 30.0531C95.3369 33.4802 95.6033 37.1709 95.6033 40.598C95.6033 43.2342 95.6033 46.1341 96.1359 48.7703C97.7337 51.1429 99.3315 53.5155 100.397 56.1518C101.462 58.5244 102.527 61.4242 102.261 64.0605C102.527 64.8513 102.527 65.115 102.527 65.115C103.06 68.0148 104.391 70.3874 105.723 72.76V73.0237C104.924 72.76 104.391 72.4964 103.592 72.2328C102.793 71.1783 102.261 69.3329 101.728 68.0148C101.462 67.2239 101.196 66.6967 100.929 65.9058C100.663 64.8513 100.929 63.7968 100.929 62.7423C100.929 60.1061 99.8641 57.4699 98.7989 55.3609C96.6685 50.6157 93.4728 46.3977 89.7446 42.9706C89.4783 42.707 89.212 42.4434 88.9456 42.1797C87.8804 45.8705 86.5489 49.0339 83.8859 51.6702C84.9511 53.7792 86.5489 55.6245 87.6141 57.7335C88.6793 59.5789 90.0109 61.4242 91.875 62.7423C93.7391 64.0605 96.1359 64.0605 98 65.3786C98.7989 65.9058 99.5978 66.6967 99.8641 67.7512C100.397 69.0693 100.929 70.1238 101.462 71.4419C96.9348 69.5966 92.9402 67.224 88.6793 64.8513C84.6848 62.7424 80.6902 60.3697 76.6956 58.2608L78.0272 54.0428C82.0217 51.9338 84.9511 48.7703 86.2826 44.5523C88.6793 37.9618 88.9456 31.1076 88.9456 24.2534C82.8206 25.8351 79.8913 33.4802 78.2935 38.7526C77.4946 41.9161 76.6956 45.0796 76.6956 48.2431C76.6956 50.8793 77.2283 53.5155 76.163 56.1518C75.6304 54.3064 72.7011 54.57 72.4348 56.4154C69.7717 54.8337 67.375 53.5155 64.9783 52.1974C64.9783 51.4065 64.9783 50.0884 64.9783 50.0884C64.9783 50.0884 64.9783 48.2431 64.7119 45.3432C64.7119 45.3432 64.7119 45.3432 64.7119 45.0796C66.0435 42.707 72.4348 28.7349 60.7174 0.527252C59.6522 6.85421 58.8533 13.1812 58.587 19.5081C58.587 27.4168 60.4511 36.1164 63.1141 44.0251C63.1141 44.0251 63.3804 44.816 63.6467 45.3432L63.913 50.6157C62.0489 49.5612 60.4511 48.5067 58.8533 47.4522C58.8533 47.4522 58.3207 47.1886 57.5217 46.3977C57.2554 46.1341 56.9891 45.8705 56.7228 45.3432C53.2609 40.3344 48.4674 36.1164 43.6739 32.4257C38.8804 28.7349 33.5543 25.5715 27.962 23.1989C21.837 20.5626 15.4457 19.5081 8.78805 18.4536C8.25544 18.4536 7.72283 18.4536 7.45652 18.19C7.72283 20.0354 9.58696 21.6171 10.6522 22.9352C12.25 24.7806 14.1141 26.3623 15.712 28.2077C19.1739 31.6348 22.9022 35.0619 27.163 37.1709C31.4239 39.2799 36.2174 40.8616 40.7446 42.1797C44.7391 43.4978 49 44.816 53.2609 45.3432C53.5272 45.3432 53.5272 45.3432 53.7935 45.3432C54.0598 45.3432 54.0598 45.3432 54.3261 45.6068C55.3913 46.3977 56.1902 46.925 56.7228 47.4522C58.0543 48.5067 60.4511 50.3521 63.3804 52.461C62.8478 52.461 62.0489 52.461 61.5163 52.1974H61.25C52.462 49.2976 41.8098 48.2431 32.7554 51.9338C29.0272 53.2519 25.2989 55.0973 21.837 56.679C19.4402 57.9971 17.3098 59.3153 15.1793 60.897C12.7826 62.7424 10.3859 64.8513 8.25544 66.9603C6.65761 68.5421 5.05979 70.1238 3.72826 71.9692C2.39674 73.5509 0.798913 75.6599 0 77.7689C5.32609 75.9235 10.3859 74.0782 15.4457 71.9692C18.9076 70.651 22.1033 69.3329 25.5652 68.0148C27.163 67.2239 28.4946 66.4331 29.8261 65.6422C33.5543 63.7968 37.2826 61.9515 40.7446 59.8425C42.6087 58.788 44.4728 57.7335 46.0706 56.679C47.1359 55.8881 48.4674 55.3609 49.2663 54.3064C50.0652 53.7792 50.8641 53.2519 51.663 52.9883C54.5924 52.1974 58.0543 53.2519 60.4511 53.7792C60.4511 53.7792 60.9837 53.7792 61.7826 54.0428C63.3804 54.3064 65.7772 55.0973 66.8424 55.3609C67.9076 56.1518 68.9728 56.679 70.038 57.4699C67.9076 56.679 64.7119 59.0516 67.375 60.897C69.2391 62.2151 73.2337 60.3697 71.1033 57.9971C72.1685 58.788 73.5 59.5789 74.2989 60.1061C73.5 60.3697 72.4348 60.897 71.6359 61.1606C70.5707 61.4242 69.5054 61.6879 68.4402 61.6879C66.3098 61.6879 64.1793 61.1606 62.3152 60.6334C57.788 59.5789 53.2609 58.2608 48.7337 56.679C43.4076 60.6334 37.0163 63.2696 31.4239 66.4331C39.1467 68.5421 47.1359 69.0693 54.8587 68.0148C60.1848 67.2239 64.9783 65.115 69.7717 63.2696C71.1033 63.006 72.1685 62.7424 73.5 62.4787C74.5652 62.2151 75.8967 62.2151 76.6956 61.4242C76.9619 61.4242 76.962 61.6879 77.2283 61.6879C77.2283 61.6879 79.8913 63.2696 83.3533 65.3786C81.4891 65.6422 79.625 65.6422 77.4946 65.6422C76.962 65.6422 76.4293 65.3786 75.8967 65.115C73.2337 64.3241 70.3043 64.5877 67.9076 65.3786C63.1141 66.6967 58.587 68.8057 54.5924 71.4419C49 75.1327 45.2717 80.1415 42.0761 85.9412C39.9456 89.6319 38.6141 93.8499 38.8804 98.0679C38.8804 98.0679 38.8804 98.0679 38.8804 98.3315C40.4783 94.6408 44.4728 92.2682 47.6685 90.1592C52.462 86.9957 57.788 84.8867 62.5815 81.4596C66.8424 78.5598 70.5707 75.1326 74.2989 71.7055C75.3641 70.6511 76.6956 69.3329 77.7609 68.2784C78.2935 67.4876 79.0924 67.4876 79.8913 67.2239C81.7554 66.9603 83.6196 66.9603 85.4837 66.6967C92.1413 70.9147 100.13 76.1871 100.397 77.2416C99.3315 78.2961 97.7337 79.087 96.4022 79.8779C95.6033 80.4051 94.538 80.9324 93.7391 81.4596C92.9402 81.7232 92.1413 81.7232 91.3424 81.7232C87.0815 82.2505 82.288 83.5686 78.5598 85.414C74.8315 87.2593 71.3696 89.8956 68.1739 92.5318C66.5761 94.1135 64.712 95.4316 63.1141 96.7498C61.5163 98.0679 59.3859 99.386 58.0543 100.968C62.0489 101.231 66.0435 99.9132 69.7717 99.1224C74.2989 98.0679 78.5598 97.0134 82.288 94.3771C86.0163 91.7409 89.4783 88.3138 92.4076 85.1503C93.7391 83.8322 94.8043 82.2505 96.4022 81.196C98.2663 80.1415 100.13 79.3506 101.728 78.5597C103.592 78.5597 105.19 78.8234 107.054 79.087C108.652 79.3506 110.25 79.8779 111.848 80.4051C114.511 81.196 117.174 81.7232 119.571 82.7777C123.033 84.0958 126.495 85.1503 129.69 87.2593C133.685 89.6319 137.413 92.2682 141.141 94.6408L132.353 95.168C131.821 95.168 131.288 94.6408 130.755 94.3771C129.957 94.1135 128.891 93.5863 128.092 93.3227C126.228 92.5318 124.364 92.0045 122.5 91.2137C118.772 90.1592 115.043 89.6319 111.049 89.8956C107.054 90.1592 103.06 90.95 99.3315 91.4773C97.4674 91.7409 95.337 92.2682 93.4728 92.5318C93.2065 92.5318 91.3424 92.7954 91.3424 93.059C91.3424 93.3227 91.875 93.3227 92.1413 93.5863C94.2717 94.3771 96.6685 94.9044 99.0652 95.4316C101.728 95.9589 104.125 96.4861 106.788 97.0134C111.848 98.0679 117.174 99.1224 122.234 98.8587C124.63 98.5951 127.293 98.3315 129.69 97.5406C131.288 97.0134 132.886 96.4861 134.75 96.2225C136.614 95.9589 138.212 95.9589 140.076 96.2225C141.408 96.2225 142.739 96.4861 144.071 96.4861C147 98.5951 149.929 100.704 152.326 103.34C154.19 105.449 156.321 107.295 158.451 108.876C160.848 110.458 163.245 112.04 165.641 113.358C167.239 114.149 168.837 115.203 170.435 115.731C173.364 117.312 180.821 111.513 176.826 109.14C173.897 108.349 170.967 107.031 168.038 105.713C165.375 104.395 162.978 102.813 160.848 100.968C158.717 99.1224 156.853 96.7498 154.457 94.9044C153.658 92.7954 152.859 90.6864 152.326 88.8411C151.793 87.5229 150.728 85.6776 151.527 84.3595C152.592 82.7777 153.924 81.196 155.522 80.1415C157.12 78.8234 159.516 76.978 161.647 76.978C162.978 76.978 164.31 77.7689 165.375 78.5597C166.707 79.3506 168.038 80.4051 169.37 81.196C172.299 82.7777 176.027 83.8322 179.223 84.0958C182.418 84.3595 185.614 83.8322 188.543 82.7777C190.141 82.2505 191.473 81.7232 192.804 80.9324C193.603 80.4051 195.467 79.6142 196 78.5597C195.734 78.2961 194.668 78.2961 193.87 78.2961C194.668 78.2961 192.804 78.2961 193.87 78.2961ZM156.054 51.9338C156.054 49.5612 156.054 46.6613 156.054 46.6613H156.321C156.321 46.6613 156.853 46.6613 157.386 46.925C157.12 49.2976 159.516 51.6702 162.978 52.9883C159.516 53.5155 154.989 55.8881 155.255 59.8425H153.924C154.457 59.8425 154.457 56.1518 156.054 51.9338C156.054 49.5612 154.457 56.1518 156.054 51.9338Z" fill="white"/>
<path d="M49.2663 35.3255C54.5924 40.0707 57.5217 44.0251 58.0543 44.816C58.3206 41.6525 56.1902 38.2254 54.8587 35.3255C51.9293 30.0531 48.7337 25.0442 44.2065 21.0899C41.0109 17.9264 37.0163 15.5538 33.5543 12.9175C31.9565 11.8631 30.625 10.5449 29.0272 9.49044C27.6957 8.43595 26.0978 7.11784 24.5 6.32697C24.5 6.32697 30.3587 19.7718 33.0217 24.2533C39.9457 27.6804 45.538 31.8984 49.2663 35.3255C54.5924 39.8071 45.538 31.8984 49.2663 35.3255Z" fill="white"/>
</svg>
