<svg width="816" height="484" viewBox="0 0 816 484" fill="none" xmlns="http://www.w3.org/2000/svg">
<path d="M807.13 326.415C794.935 326.415 782.739 327.517 770.543 324.212C758.348 320.906 747.261 316.499 736.174 310.99C728.413 306.582 720.652 299.971 711.783 298.87C705.13 297.768 699.587 299.971 694.043 302.175C679.63 307.684 667.435 316.499 655.239 325.313C649.696 328.619 645.261 333.026 640.826 336.332C638.609 338.535 636.391 340.739 633.065 341.841C634.174 337.433 635.283 333.026 636.391 328.619C638.609 318.702 639.717 308.786 641.935 298.87C643.043 292.259 643.043 285.648 643.043 279.037C643.043 272.426 641.935 263.611 643.043 257H648.587C648.587 257 648.587 257 649.696 257C657.457 280.139 691.826 281.24 710.674 272.426C719.544 268.019 728.413 260.306 728.413 249.288C728.413 237.168 716.217 229.455 706.239 225.047C715.109 223.946 727.304 220.64 731.739 210.724C735.065 201.909 729.522 191.993 721.761 186.484C711.783 178.771 699.587 175.465 687.391 176.567C677.413 177.669 664.109 180.975 659.674 190.891C658.565 190.891 650.804 190.891 649.696 190.891C649.696 184.28 648.587 177.669 647.478 171.058C647.478 168.854 646.37 163.345 644.152 162.243C638.609 158.938 640.826 168.854 640.826 171.058C641.935 173.262 641.935 176.567 641.935 179.873C643.043 185.382 643.043 190.891 643.043 196.4C644.152 205.215 644.152 214.029 643.043 222.844C641.935 230.557 639.717 238.269 637.5 244.88C635.283 258.102 635.283 271.324 635.283 284.546C635.283 299.971 631.956 314.295 629.739 328.619C628.63 331.924 628.63 335.23 627.522 338.535C627.522 339.637 626.413 340.739 625.304 339.637C621.978 330.823 620.87 322.008 618.652 313.193C618.652 307.684 618.652 303.277 618.652 303.277V302.175C624.196 266.917 625.304 228.353 609.783 195.298C600.913 176.567 589.826 158.938 579.848 141.309C575.413 133.596 572.087 124.782 567.652 117.069C568.761 132.494 567.652 147.92 568.761 164.447C568.761 184.28 568.761 204.113 572.087 222.844C575.413 241.575 582.065 258.102 589.826 274.63C593.152 282.342 596.478 290.055 600.913 296.666C603.13 299.971 605.348 302.175 607.565 304.379C609.783 307.684 610.891 310.99 612 314.295C612 315.397 612 315.397 612 316.499C617.543 341.841 621.978 367.183 629.739 391.423C595.37 370.488 549.913 352.859 536.609 341.841C536.609 318.702 531.065 294.462 524.413 272.426C522.196 265.815 521.087 259.204 517.761 253.695C516.652 250.389 511.109 241.575 514.435 238.269C518.87 234.964 529.956 245.982 531.065 249.288C523.304 262.509 531.065 283.444 539.935 294.462C547.696 303.277 564.326 315.397 576.522 305.481C587.609 295.564 582.065 273.528 576.522 262.509C569.87 249.288 555.457 238.269 539.935 243.778C536.609 241.575 533.283 239.371 529.956 237.168C527.739 236.066 523.304 234.964 522.196 232.76C522.196 232.76 522.196 232.76 522.196 231.658C522.196 230.557 523.304 230.557 523.304 229.455C526.63 225.047 529.957 221.742 533.283 217.335C537.717 214.029 541.043 209.622 546.587 206.316C552.13 203.011 558.783 199.705 563.217 195.298C563.217 177.669 562.109 158.938 562.109 141.309C552.13 158.938 546.587 178.771 539.935 197.502C535.5 203.011 533.283 208.52 528.848 214.029C526.63 216.233 524.413 219.538 522.196 221.742C521.087 223.946 517.761 225.047 516.652 227.251C514.435 214.029 519.978 200.807 525.522 188.687C533.283 169.956 547.696 154.531 555.457 134.698C563.217 117.069 563.217 97.2359 564.326 78.5049C565.435 58.6721 565.435 38.8393 566.543 20.1083C566.543 14.5992 566.543 9.09004 566.543 2.4791C566.543 -0.826368 565.435 -0.826368 563.217 2.4791C544.37 27.821 533.283 61.9776 524.413 92.8286C517.761 115.967 513.326 139.105 512.217 163.345C511.109 178.771 511.109 193.095 511.109 208.52C511.109 214.029 511.109 220.64 510 226.149C508.891 229.455 504.456 220.64 503.348 220.64C497.804 211.826 494.478 200.807 490.043 191.993C483.391 176.567 476.739 161.142 467.87 146.818C457.891 131.392 444.587 117.069 430.174 106.051C412.435 91.7268 391.37 81.8104 372.522 68.5885C375.848 71.894 376.957 77.4031 379.174 81.8104C382.5 88.4213 384.717 95.0323 388.043 102.745C390.261 107.152 391.37 111.56 394.696 115.967C395.804 118.171 398.022 120.374 400.239 121.476C404.674 126.985 409.109 133.596 413.543 139.105C423.522 152.327 432.391 168.854 446.804 178.771C453.456 184.28 462.326 187.585 468.978 191.993C475.63 196.4 481.174 200.807 486.717 206.316C491.152 212.927 495.587 219.538 498.913 226.149C503.348 232.76 497.804 237.168 492.261 240.473C478.957 231.658 463.435 244.88 456.783 254.797C447.913 266.917 440.152 290.055 452.348 302.175C463.435 312.092 480.065 303.277 488.935 294.462C501.13 282.342 507.783 259.204 496.696 244.88C500.022 241.575 503.348 240.473 505.565 244.88C506.674 248.186 508.891 252.593 510 255.898C511.109 261.408 513.326 266.917 514.435 272.426C516.652 283.444 517.761 294.462 518.87 305.481C518.87 310.99 518.87 316.499 516.652 320.906C514.435 325.313 506.674 325.313 503.348 325.313C487.826 320.906 468.978 315.397 449.022 308.786C444.587 302.175 440.152 294.462 437.935 287.851C436.826 270.222 442.37 253.695 442.37 236.066C443.478 217.335 443.478 196.4 439.043 177.669C431.283 169.956 424.63 161.142 417.978 152.327C411.326 142.411 404.674 133.596 396.913 124.782C396.913 139.105 398.022 154.531 398.022 168.854C398.022 179.873 398.022 191.993 400.239 203.011C406.891 212.927 413.543 222.844 417.978 233.862C422.413 243.778 426.848 255.898 425.739 266.917C426.848 270.222 426.848 271.324 426.848 271.324C429.065 283.444 434.609 293.361 440.152 303.277V304.379C436.826 303.277 434.609 302.175 431.283 301.073C427.957 296.666 425.739 288.953 423.522 283.444C422.413 280.139 421.304 277.935 420.196 274.63C419.087 270.222 420.196 265.815 420.196 261.408C420.196 250.389 415.761 239.371 411.326 230.557C402.457 210.724 389.152 193.095 373.63 178.771C372.522 177.669 371.413 176.567 370.304 175.465C365.87 190.891 360.326 204.113 349.239 215.131C353.674 223.946 360.326 231.658 364.761 240.473C369.196 248.186 374.739 255.898 382.5 261.408C390.261 266.917 400.239 266.917 408 272.426C411.326 274.629 414.652 277.935 415.761 282.342C417.978 287.851 420.196 292.259 422.413 297.768C403.565 290.055 386.935 280.139 369.196 270.222C352.565 261.408 335.935 251.491 319.304 242.677L324.848 225.047C341.478 216.233 353.674 203.011 359.217 185.382C369.196 157.836 370.304 129.189 370.304 100.541C344.804 107.152 332.609 139.105 325.957 161.142C322.63 174.364 319.304 187.585 319.304 200.807C319.304 211.826 321.522 222.844 317.087 233.862C314.87 226.149 302.674 227.251 301.565 234.964C290.478 228.353 280.5 222.844 270.522 217.335C270.522 214.029 270.522 208.52 270.522 208.52C270.522 208.52 270.522 200.807 269.413 188.687C269.413 188.687 269.413 188.687 269.413 187.585C274.957 177.669 301.565 119.272 252.783 1.37728C248.348 27.821 245.022 54.2648 243.913 80.7086C243.913 113.763 251.674 150.123 262.761 183.178C262.761 183.178 263.87 186.484 264.978 188.687L266.087 210.724C258.326 206.316 251.674 201.909 245.022 197.502C245.022 197.502 242.804 196.4 239.478 193.095C238.37 191.993 237.261 190.891 236.152 188.687C221.739 167.753 201.783 150.123 181.826 134.698C161.87 119.272 139.696 106.051 116.413 96.1341C90.913 85.1159 64.3044 80.7086 36.587 76.3013C34.3696 76.3013 32.1522 76.3013 31.0435 75.1995C32.1522 82.9122 39.913 89.5232 44.3478 95.0323C51 102.745 58.7609 109.356 65.4131 117.069C79.8261 131.392 95.3478 145.716 113.087 154.531C130.826 163.345 150.783 169.956 169.63 175.465C186.261 180.975 204 186.484 221.739 188.687C222.848 188.687 222.848 188.687 223.957 188.687C225.065 188.687 225.065 188.687 226.174 189.789C230.609 193.095 233.935 195.298 236.152 197.502C241.696 201.909 251.674 209.622 263.87 218.437C261.652 218.437 258.326 218.436 256.109 217.335H255C218.413 205.215 174.065 200.807 136.37 216.233C120.848 221.742 105.326 229.455 90.913 236.066C80.9348 241.575 72.0652 247.084 63.1957 253.695C53.2174 261.408 43.2391 270.222 34.3696 279.037C27.7174 285.648 21.0652 292.259 15.5218 299.971C9.97828 306.582 3.32609 315.397 0 324.212C22.1739 316.499 43.2391 308.786 64.3044 299.971C78.7174 294.462 92.0217 288.953 106.435 283.444C113.087 280.139 118.63 276.833 124.174 273.528C139.696 265.815 155.217 258.102 169.63 249.288C177.391 244.88 185.152 240.473 191.804 236.066C196.239 232.76 201.783 230.557 205.109 226.149C208.435 223.946 211.761 221.742 215.087 220.64C227.283 217.335 241.696 221.742 251.674 223.946C251.674 223.946 253.891 223.946 257.217 225.047C263.87 226.149 273.848 229.455 278.283 230.557C282.717 233.862 287.152 236.066 291.587 239.371C282.717 236.066 269.413 245.982 280.5 253.695C288.261 259.204 304.891 251.491 296.022 241.575C300.457 244.88 306 248.186 309.326 250.389C306 251.491 301.565 253.695 298.239 254.797C293.804 255.899 289.37 257 284.935 257C276.065 257 267.196 254.797 259.435 252.593C240.587 248.186 221.739 242.677 202.891 236.066C180.717 252.593 154.109 263.611 130.826 276.833C162.978 285.648 196.239 287.851 228.391 283.444C250.565 280.139 270.522 271.324 290.478 263.611C296.022 262.509 300.457 261.408 306 260.306C310.435 259.204 315.978 259.204 319.304 255.898C320.413 255.898 320.413 257 321.522 257C321.522 257 332.609 263.611 347.022 272.426C339.261 273.528 331.5 273.528 322.63 273.528C320.413 273.528 318.196 272.426 315.978 271.324C304.891 268.019 292.696 269.12 282.717 272.426C262.761 277.935 243.913 286.75 227.283 297.768C204 313.193 188.478 334.128 175.174 358.368C166.304 373.794 160.761 391.423 161.87 409.052C161.87 409.052 161.87 409.052 161.87 410.154C168.522 394.728 185.152 384.812 198.457 375.997C218.413 362.775 240.587 353.961 260.543 339.637C278.283 327.517 293.804 313.193 309.326 298.87C313.761 294.462 319.304 288.953 323.739 284.546C325.957 281.24 329.283 281.24 332.609 280.139C340.37 279.037 348.13 279.037 355.891 277.935C383.609 295.564 416.87 317.601 417.978 322.008C413.543 326.415 406.891 329.721 401.348 333.026C398.022 335.23 393.587 337.433 390.261 339.637C386.935 340.739 383.609 340.739 380.283 340.739C362.543 342.943 342.587 348.452 327.065 356.164C311.543 363.877 297.13 374.895 283.826 385.914C277.174 392.525 269.413 398.034 262.761 403.543C256.109 409.052 247.239 414.561 241.696 421.172C258.326 422.274 274.957 416.765 290.478 413.459C309.326 409.052 327.065 404.645 342.587 393.626C358.109 382.608 372.522 368.284 384.717 355.063C390.261 349.553 394.696 342.943 401.348 338.535C409.109 334.128 416.87 330.822 423.522 327.517C431.283 327.517 437.935 328.619 445.696 329.721C452.348 330.823 459 333.026 465.652 335.23C476.739 338.535 487.826 340.739 497.804 345.146C512.217 350.655 526.63 355.063 539.935 363.877C556.565 373.794 572.087 384.812 587.609 394.728L551.022 396.932C548.804 396.932 546.587 394.728 544.37 393.626C541.043 392.525 536.609 390.321 533.283 389.219C525.522 385.914 517.761 383.71 510 380.405C494.478 375.997 478.957 373.794 462.326 374.895C445.696 375.997 429.065 379.303 413.543 381.506C405.783 382.608 396.913 384.812 389.152 385.914C388.043 385.914 380.283 387.015 380.283 388.117C380.283 389.219 382.5 389.219 383.609 390.321C392.478 393.626 402.457 395.83 412.435 398.034C423.522 400.237 433.5 402.441 444.587 404.645C465.652 409.052 487.826 413.459 508.891 412.357C518.87 411.256 529.957 410.154 539.935 406.848C546.587 404.645 553.239 402.441 561 401.339C568.761 400.237 575.413 400.237 583.174 401.339C588.717 401.339 594.261 402.441 599.804 402.441C612 411.256 624.196 420.07 634.174 431.088C641.935 439.903 650.804 447.616 659.674 454.227C669.652 460.838 679.63 467.449 689.609 472.958C696.261 476.263 702.913 480.671 709.565 482.874C721.761 489.485 752.804 465.245 736.174 455.329C723.978 452.023 711.783 446.514 699.587 441.005C688.5 435.496 678.522 428.885 669.652 421.172C660.783 413.459 653.022 403.543 643.043 395.83C639.717 387.016 636.391 378.201 634.174 370.488C631.957 364.979 627.522 357.266 630.848 351.757C635.283 345.146 640.826 338.535 647.478 334.128C654.13 328.619 664.109 320.906 672.978 320.906C678.522 320.906 684.065 324.212 688.5 327.517C694.043 330.822 699.587 335.23 705.13 338.535C717.326 345.146 732.848 349.554 746.152 350.655C759.457 351.757 772.761 349.554 784.957 345.146C791.609 342.943 797.152 340.739 802.696 337.433C806.022 335.23 813.783 331.924 816 327.517C814.891 326.415 810.457 326.415 807.13 326.415C810.457 326.415 802.696 326.415 807.13 326.415ZM649.696 216.233C649.696 206.316 649.696 194.196 649.696 194.196H650.804C650.804 194.196 653.022 194.196 655.239 195.298C654.13 205.215 664.109 215.131 678.522 220.64C664.109 222.844 645.261 232.76 646.37 249.288H640.826C643.043 249.288 643.043 233.862 649.696 216.233C649.696 206.316 643.043 233.862 649.696 216.233Z" fill="#00737C" fill-opacity="0.21"/>
</svg>
